<svg width="12" height="12" viewBox="0 0 12 12" fill="none" xmlns="http://www.w3.org/2000/svg">
<path d="M10.9994 6.83342H6.83268V11.0001C6.83268 11.4584 6.45768 11.8334 5.99935 11.8334C5.54102 11.8334 5.16602 11.4584 5.16602 11.0001V6.83342H0.999349C0.541016 6.83342 0.166016 6.45842 0.166016 6.00008C0.166016 5.54175 0.541016 5.16675 0.999349 5.16675H5.16602V1.00008C5.16602 0.541748 5.54102 0.166748 5.99935 0.166748C6.45768 0.166748 6.83268 0.541748 6.83268 1.00008V5.16675H10.9994C11.4577 5.16675 11.8327 5.54175 11.8327 6.00008C11.8327 6.45842 11.4577 6.83342 10.9994 6.83342Z" fill="#F4F2FF"/>
</svg>
