<svg width="38" height="38" viewBox="0 0 38 38" fill="none" xmlns="http://www.w3.org/2000/svg">
<path d="M19 23.75C21.6234 23.75 23.75 21.6234 23.75 19C23.75 16.3766 21.6234 14.25 19 14.25C16.3766 14.25 14.25 16.3766 14.25 19C14.25 21.6234 16.3766 23.75 19 23.75Z" fill="#F4F2FF"/>
<path d="M31.6666 6.33335H26.6475L24.6841 4.19585C24.0983 3.54669 23.2433 3.16669 22.3566 3.16669H15.6433C14.7566 3.16669 13.9016 3.54669 13.3 4.19585L11.3525 6.33335H6.33329C4.59163 6.33335 3.16663 7.75835 3.16663 9.50002V28.5C3.16663 30.2417 4.59163 31.6667 6.33329 31.6667H31.6666C33.4083 31.6667 34.8333 30.2417 34.8333 28.5V9.50002C34.8333 7.75835 33.4083 6.33335 31.6666 6.33335ZM19 26.9167C14.63 26.9167 11.0833 23.37 11.0833 19C11.0833 14.63 14.63 11.0834 19 11.0834C23.37 11.0834 26.9166 14.63 26.9166 19C26.9166 23.37 23.37 26.9167 19 26.9167Z" fill="#F4F2FF"/>
</svg>
