<svg xmlns="http://www.w3.org/2000/svg" xmlns:xlink="http://www.w3.org/1999/xlink" width="22" height="21" viewBox="0 0 22 21">
  <defs>
    <clipPath id="clip-path">
      <rect id="Rectangle_2" data-name="Rectangle 2" width="22" height="21" transform="translate(732 553)" fill="none"/>
    </clipPath>
  </defs>
  <g id="favicon" transform="translate(-732 -553)" clip-path="url(#clip-path)">
    <g id="onquity_logo" transform="translate(733 554.795)">
      <path id="Path_1" data-name="Path 1" d="M42.494,12.243a3.686,3.686,0,0,1,.371-1.7,2.715,2.715,0,0,1,1.086-1.133,3.694,3.694,0,0,1,3.35,0,2.715,2.715,0,0,1,1.086,1.133,3.524,3.524,0,0,1,.389,1.7,3.616,3.616,0,0,1-.389,1.722A2.786,2.786,0,0,1,47.3,15.09a3.694,3.694,0,0,1-3.35,0,2.789,2.789,0,0,1-1.077-1.142A3.646,3.646,0,0,1,42.494,12.243Zm1.476,0a2.527,2.527,0,0,0,.407,1.526,1.7,1.7,0,0,0,2.49,0,2.447,2.447,0,0,0,.426-1.526,2.385,2.385,0,0,0-.426-1.517,1.7,1.7,0,0,0-2.49,0A2.462,2.462,0,0,0,43.97,12.243Z" transform="translate(-19.647 -4.163)" fill="#fff"/>
      <path id="Path_2" data-name="Path 2" d="M56.234,15.478V9.187h1.05l3.467,4.346h-.244V9.187H61.82v6.291h-1.05l-3.458-4.346h.235v4.346Z" transform="translate(-26 -4.248)" fill="#fff"/>
      <path id="Path_3" data-name="Path 3" d="M73.508,17.107a3.015,3.015,0,0,1-.607-.419,4.391,4.391,0,0,1-.561-.589,4.234,4.234,0,0,1-.435-.669l1.1-.482a2.929,2.929,0,0,0,.625.83,4,4,0,0,0,.833.625Zm-4.835-4.863a3.686,3.686,0,0,1,.371-1.7,2.715,2.715,0,0,1,1.086-1.133,3.694,3.694,0,0,1,3.35,0,2.716,2.716,0,0,1,1.086,1.133,3.524,3.524,0,0,1,.389,1.7,3.616,3.616,0,0,1-.389,1.722,2.786,2.786,0,0,1-1.086,1.133,3.694,3.694,0,0,1-3.35,0,2.789,2.789,0,0,1-1.077-1.142A3.646,3.646,0,0,1,68.674,12.243Zm1.476,0a2.527,2.527,0,0,0,.407,1.526,1.7,1.7,0,0,0,2.49,0,2.448,2.448,0,0,0,.426-1.526,2.385,2.385,0,0,0-.426-1.517,1.7,1.7,0,0,0-2.49,0A2.462,2.462,0,0,0,70.149,12.243Z" transform="translate(-31.752 -4.163)" fill="#fff"/>
      <path id="Path_4" data-name="Path 4" d="M85.125,15.576a2.847,2.847,0,0,1-2.091-.687,2.771,2.771,0,0,1-.688-2.043V9.187h1.412v3.668a1.764,1.764,0,0,0,.326,1.151,1.3,1.3,0,0,0,1.041.393,1.271,1.271,0,0,0,1.023-.393,1.7,1.7,0,0,0,.344-1.151V9.187h1.394v3.659a2.749,2.749,0,0,1-.7,2.043A2.806,2.806,0,0,1,85.125,15.576Z" transform="translate(-38.073 -4.248)" fill="#fff"/>
      <path id="Path_5" data-name="Path 5" d="M94.977,15.478V9.187h1.412v6.291Z" transform="translate(-43.913 -4.248)" fill="#fff"/>
      <path id="Path_6" data-name="Path 6" d="M101.009,15.478V10.32H98.981V9.187h5.468V10.32h-2.028v5.158Z" transform="translate(-45.765 -4.248)" fill="#fff"/>
      <path id="Path_7" data-name="Path 7" d="M111.552,15.478V12.488l.289.794-2.8-4.1h1.63l1.756,2.695h-.29L113.9,9.187h1.575l-2.788,4.1.281-.794v2.989Z" transform="translate(-50.417 -4.248)" fill="#fff"/>
      <path id="Path_8" data-name="Path 8" d="M16.823,19.837a4.924,4.924,0,1,0-4.99-4.924A4.957,4.957,0,0,0,16.823,19.837Zm0,1.358a6.282,6.282,0,1,0-6.367-6.282A6.325,6.325,0,0,0,16.823,21.2Z" transform="translate(-4.834 -3.991)" fill="#fafafa" fill-rule="evenodd"/>
      <path id="Path_9" data-name="Path 9" d="M10.97,4.377A5,5,0,0,0,1.377,6.282a4.941,4.941,0,0,0,3.9,4.806,6.544,6.544,0,0,0,.19,1.414A6.312,6.312,0,0,1,0,6.282,6.325,6.325,0,0,1,6.367,0a6.362,6.362,0,0,1,6.048,4.314Q12.2,4.3,11.988,4.3A6.854,6.854,0,0,0,10.97,4.377ZM7.346,11.111a4.944,4.944,0,0,0,4.01-4.73,4.767,4.767,0,0,1,1.377.017A6.308,6.308,0,0,1,7.6,12.445,4.514,4.514,0,0,1,7.346,11.111Z" fill="#fafafa" fill-rule="evenodd"/>
      <path id="Path_10" data-name="Path 10" d="M16.823,19.837a4.924,4.924,0,1,0-4.99-4.924A4.957,4.957,0,0,0,16.823,19.837ZM16.766,21.2h0a6.283,6.283,0,1,1,6.424-6.282,6.2,6.2,0,0,1-1.206,3.679h0c-.344,2.264.86,2.434,2.294,2.6H16.766Zm6.826-.792a.962.962,0,1,0-.975-.962A.969.969,0,0,0,23.592,20.4Z" transform="translate(-4.834 -3.991)" fill="#fafafa" fill-rule="evenodd"/>
      <path id="Path_11" data-name="Path 11" d="M31.547,27.432a2.116,2.116,0,0,1,.287-.906l-.459.283-.115.623Z" transform="translate(-14.453 -12.264)" fill="#fafafa"/>
      <path id="Path_12" data-name="Path 12" d="M12.371,11.867l-.607-.2-.074,1.071A6.721,6.721,0,0,1,12.371,11.867Zm2.29.748,1.461.477a4.535,4.535,0,0,1-1.8,2.335,4.622,4.622,0,0,1-1.611.672,4.607,4.607,0,0,1,1.265-2.893A4.681,4.681,0,0,1,14.661,12.614Z" transform="translate(-5.405 -5.395)" fill="#5d9eff" fill-rule="evenodd"/>
      <g id="Group_1" data-name="Group 1" transform="translate(6.358 2.035)">
        <path id="Path_13" data-name="Path 13" d="M14.961,4.717a4.6,4.6,0,0,0-1.521-.932L11.825,8.024l.588.218.093-.1a6.825,6.825,0,0,1,3.51-1.964L16,6.153A4.53,4.53,0,0,0,14.961,4.717Zm1.45,3.5a4.729,4.729,0,0,0-1.8.839l1.516.562A4.474,4.474,0,0,0,16.411,8.216Z" transform="translate(-11.825 -3.785)" fill="#afa5f9" fill-rule="evenodd"/>
      </g>
      <path id="Path_14" data-name="Path 14" d="M3.293,7.62a4.484,4.484,0,0,0,.795,2.706L7.88,7.775,9.5,3.54A4.648,4.648,0,0,0,6.65,3.413,4.594,4.594,0,0,0,4.274,4.975,4.491,4.491,0,0,0,3.293,7.62Z" transform="translate(-1.521 -1.501)" fill="#867dfd" fill-rule="evenodd"/>
      <path id="Path_15" data-name="Path 15" d="M8.467,12.747l.079-1.079L4.73,14.184a4.565,4.565,0,0,0,1.509,1.4,4.624,4.624,0,0,0,1.154.469A6.649,6.649,0,0,1,8.467,12.747Z" transform="translate(-2.187 -5.395)" fill="#78aeff" fill-rule="evenodd"/>
    </g>
  </g>
</svg>
