<svg width="20" height="20" viewBox="0 0 20 20" fill="none" xmlns="http://www.w3.org/2000/svg">
<path d="M9.16602 14.167H10.8327V9.16699H9.16602V14.167ZM9.99935 1.66699C5.39935 1.66699 1.66602 5.40033 1.66602 10.0003C1.66602 14.6003 5.39935 18.3337 9.99935 18.3337C14.5993 18.3337 18.3327 14.6003 18.3327 10.0003C18.3327 5.40033 14.5993 1.66699 9.99935 1.66699ZM9.99935 16.667C6.32435 16.667 3.33268 13.6753 3.33268 10.0003C3.33268 6.32533 6.32435 3.33366 9.99935 3.33366C13.6743 3.33366 16.666 6.32533 16.666 10.0003C16.666 13.6753 13.6743 16.667 9.99935 16.667ZM9.16602 7.50033H10.8327V5.83366H9.16602V7.50033Z" fill="#583CD5"/>
</svg>
