<svg width="21" height="19" viewBox="0 0 21 19" fill="none" xmlns="http://www.w3.org/2000/svg">
<path d="M2.66858 4.79126C3.99165 4.79126 5.06421 3.7187 5.06421 2.39563C5.06421 1.07256 3.99165 0 2.66858 0C1.34551 0 0.272949 1.07256 0.272949 2.39563C0.272949 3.7187 1.34551 4.79126 2.66858 4.79126Z" fill="white"/>
<path fill-rule="evenodd" clip-rule="evenodd" d="M0.530762 18.8413V6.02148H4.80405V18.8413H0.530762ZM11.4082 6.02148V18.8413H7.13493V6.02148H11.4082Z" fill="white"/>
<path d="M11.3433 11.7192C11.3433 10.4242 12.185 9.12928 13.6741 9.12928C15.2281 9.12928 15.8108 10.2947 15.8108 12.0429V18.8413H20.0841V11.5249C20.0841 7.57536 18.0122 5.76245 15.1633 5.76245C12.9619 5.76245 11.8612 6.99264 11.3433 7.83435" fill="white"/>
</svg>
