<svg width="24" height="24" viewBox="0 0 24 24" fill="none" xmlns="http://www.w3.org/2000/svg">
<path d="M13.2833 10.6008H13.3001V10.5744L13.2833 10.6008ZM13.2833 10.6008H13.3001V10.5744L13.2833 10.6008ZM13.2833 10.6008H13.3001V10.5744L13.2833 10.6008ZM13.2833 10.6008H13.3001V10.5744L13.2833 10.6008ZM13.2833 10.6008H13.3001V10.5744L13.2833 10.6008ZM13.2833 10.6008H13.3001V10.5744L13.2833 10.6008ZM13.2833 10.6008H13.3001V10.5744L13.2833 10.6008ZM13.2833 10.6008H13.3001V10.5744L13.2833 10.6008ZM13.2833 10.6008H13.3001V10.5744L13.2833 10.6008ZM13.2833 10.6008H13.3001V10.5744L13.2833 10.6008ZM13.2833 10.6008H13.3001V10.5744L13.2833 10.6008ZM13.2833 10.6008H13.3001V10.5744L13.2833 10.6008ZM13.2833 10.6008H13.3001V10.5744L13.2833 10.6008ZM13.2833 10.6008H13.3001V10.5744L13.2833 10.6008ZM13.2833 10.6008H13.3001V10.5744L13.2833 10.6008ZM13.2833 10.6008H13.3001V10.5744L13.2833 10.6008ZM12.1913 0.904785C10.0234 0.904785 7.90427 1.54762 6.10178 2.75201C4.29928 3.9564 2.89441 5.66824 2.06481 7.67107C1.23522 9.67389 1.01816 11.8777 1.44108 14.0039C1.86401 16.1301 2.90792 18.0831 4.44082 19.616C5.97371 21.1489 7.92674 22.1929 10.0529 22.6158C12.1791 23.0387 14.383 22.8216 16.3858 21.992C18.3886 21.1625 20.1005 19.7576 21.3048 17.9551C22.5092 16.1526 23.1521 14.0334 23.1521 11.8656C23.1489 8.95958 21.9931 6.1735 19.9382 4.11864C17.8834 2.06378 15.0973 0.907961 12.1913 0.904785ZM9.45047 16.8C9.44984 16.8486 9.43009 16.895 9.3955 16.9291C9.36092 16.9633 9.31427 16.9824 9.26567 16.9824H7.15367C7.1053 16.9824 7.0589 16.9632 7.0247 16.929C6.99049 16.8948 6.97127 16.8484 6.97127 16.8V9.70319C6.97095 9.67903 6.97544 9.65506 6.98446 9.63265C6.99349 9.61024 7.00687 9.58985 7.02384 9.57266C7.04081 9.55546 7.06103 9.54181 7.08331 9.5325C7.1056 9.52318 7.12952 9.51838 7.15367 9.51839H9.26567C9.28994 9.51839 9.31397 9.52317 9.33639 9.53245C9.35881 9.54174 9.37919 9.55535 9.39635 9.57251C9.41351 9.58967 9.42712 9.61005 9.43641 9.63247C9.44569 9.65489 9.45047 9.67892 9.45047 9.70319V16.8ZM8.13527 8.57039C7.87278 8.57039 7.61618 8.49255 7.39792 8.34671C7.17966 8.20088 7.00955 7.9936 6.9091 7.75108C6.80865 7.50857 6.78236 7.24171 6.83357 6.98426C6.88479 6.72681 7.01119 6.49033 7.1968 6.30471C7.38241 6.1191 7.6189 5.9927 7.87635 5.94149C8.1338 5.89028 8.40066 5.91656 8.64317 6.01701C8.88568 6.11747 9.09297 6.28758 9.2388 6.50583C9.38463 6.72409 9.46247 6.98069 9.46247 7.24319C9.46279 7.41757 9.42868 7.59029 9.36209 7.75146C9.2955 7.91262 9.19776 8.05906 9.07445 8.18236C8.95115 8.30567 8.80471 8.40342 8.64354 8.47C8.48238 8.53659 8.30965 8.5707 8.13527 8.57039ZM18.3881 16.8C18.3874 16.8486 18.3677 16.895 18.3331 16.9291C18.2985 16.9633 18.2519 16.9824 18.2033 16.9824H16.0913C16.0673 16.9824 16.0436 16.9777 16.0215 16.9685C15.9993 16.9593 15.9792 16.9459 15.9623 16.929C15.9454 16.912 15.9319 16.8919 15.9228 16.8698C15.9136 16.8477 15.9089 16.8239 15.9089 16.8V12.9864C15.9089 11.9832 15.5513 11.3064 14.6537 11.3064C14.374 11.308 14.1016 11.396 13.8739 11.5584C13.6462 11.7208 13.4742 11.9496 13.3817 12.2136C13.3184 12.4087 13.2908 12.6135 13.3001 12.8184V16.8C13.3001 16.849 13.2806 16.896 13.2459 16.9307C13.2113 16.9653 13.1643 16.9848 13.1153 16.9848H11.0033C10.9791 16.9848 10.9552 16.98 10.9329 16.9707C10.9106 16.9614 10.8904 16.9477 10.8734 16.9305C10.8565 16.9133 10.8431 16.8929 10.8341 16.8705C10.825 16.8481 10.8206 16.8241 10.8209 16.8C10.8209 15.7872 10.8473 10.8696 10.8209 9.71279C10.8206 9.68863 10.825 9.66466 10.8341 9.64225C10.8431 9.61984 10.8565 9.59945 10.8734 9.58226C10.8904 9.56506 10.9106 9.55141 10.9329 9.5421C10.9552 9.53278 10.9791 9.52798 11.0033 9.52799H13.1105C13.1348 9.52766 13.159 9.53222 13.1816 9.5414C13.2041 9.55057 13.2246 9.56417 13.2419 9.58139C13.2591 9.59862 13.2727 9.61912 13.2819 9.64169C13.291 9.66425 13.2956 9.68843 13.2953 9.71279V10.584C13.5198 10.1943 13.8467 9.87351 14.2406 9.65646C14.6345 9.43942 15.0803 9.33439 15.5297 9.35279C17.1593 9.35279 18.3833 10.4184 18.3833 12.7128L18.3881 16.8ZM13.3001 10.608V10.5816L13.2833 10.608H13.3001ZM13.2833 10.608H13.3001V10.5816L13.2833 10.608ZM13.2833 10.608H13.3001V10.5816L13.2833 10.608ZM13.2833 10.608H13.3001V10.5816L13.2833 10.608ZM13.2833 10.608H13.3001V10.5816L13.2833 10.608ZM13.2833 10.608H13.3001V10.5816L13.2833 10.608ZM13.2833 10.608H13.3001V10.5816L13.2833 10.608ZM13.2833 10.608H13.3001V10.5816L13.2833 10.608ZM13.2833 10.608H13.3001V10.5816L13.2833 10.608ZM13.2833 10.608H13.3001V10.5816L13.2833 10.608ZM13.2833 10.608H13.3001V10.5816L13.2833 10.608ZM13.2833 10.608H13.3001V10.5816L13.2833 10.608ZM13.2833 10.608H13.3001V10.5816L13.2833 10.608ZM13.2833 10.608H13.3001V10.5816L13.2833 10.608ZM13.2833 10.608H13.3001V10.5816L13.2833 10.608Z" fill="#7E5AE8"/>
</svg>
