<svg width="18" height="20" viewBox="0 0 18 20" fill="none" xmlns="http://www.w3.org/2000/svg">
<path d="M1.83784 10.9517L1.92734 10.9123V10.8145V7.31055C1.92734 3.36574 5.09322 0.15 9 0.15C12.9068 0.15 16.0727 3.36574 16.0727 7.31055V10.8145V10.9123L16.1622 10.9517C17.1175 11.3728 17.85 12.1398 17.85 13.1973C17.85 14.6444 16.6673 15.85 15.2227 15.85H2.77734C1.33269 15.85 0.15 14.6444 0.15 13.1973C0.15 12.1398 0.882488 11.3728 1.83784 10.9517ZM14.3727 7.31032L14.3724 7.16055H14.3703C14.2936 4.18348 11.938 1.85 8.99961 1.85C6.01202 1.85 3.62696 4.26224 3.62696 7.31055C3.62696 7.67801 3.62601 8.04794 3.62506 8.41869C3.62254 9.39897 3.62001 10.385 3.63498 11.3461L3.6349 11.3461L3.63514 11.3511C3.6591 11.8422 3.26618 12.2421 2.84729 12.2423C2.55866 12.2425 2.30776 12.3377 2.12807 12.5106C1.94805 12.6838 1.8498 12.9252 1.8498 13.1973C1.8498 13.7473 2.25116 14.15 2.77714 14.15H15.2225C15.7485 14.15 16.1498 13.7473 16.1498 13.1973C16.1498 12.9252 16.0516 12.6838 15.8715 12.5106C15.6917 12.3377 15.4407 12.2425 15.1519 12.2424C14.7328 12.2422 14.3395 11.8412 14.3645 11.3494L14.3646 11.3494L14.3647 11.3428C14.3737 10.0394 14.3747 8.6386 14.3727 7.31032ZM6.39896 18.399C6.55837 18.2396 6.77457 18.15 7 18.15H11C11.2254 18.15 11.4416 18.2396 11.601 18.399C11.7604 18.5584 11.85 18.7746 11.85 19C11.85 19.2254 11.7604 19.4416 11.601 19.601C11.4416 19.7604 11.2254 19.85 11 19.85H7C6.77457 19.85 6.55837 19.7604 6.39896 19.601C6.23955 19.4416 6.15 19.2254 6.15 19C6.15 18.7746 6.23955 18.5584 6.39896 18.399Z" fill="#F4F2FF" stroke="#1D1A23" stroke-width="0.3"/>
</svg>
