<svg width="121" height="32" viewBox="0 0 121 32" fill="none" xmlns="http://www.w3.org/2000/svg">
<path d="M42.4941 15.0291C42.4941 13.8119 42.7243 12.7552 43.1845 11.8589C43.656 10.9516 44.3296 10.249 45.2052 9.75104C46.0809 9.25312 47.1193 9.00415 48.3205 9.00415C49.5217 9.00415 50.5601 9.25312 51.4357 9.75104C52.3114 10.249 52.9849 10.9516 53.4564 11.8589C53.9391 12.7552 54.1805 13.8064 54.1805 15.0125C54.1805 16.2407 53.9391 17.3085 53.4564 18.2158C52.9849 19.1121 52.3114 19.8148 51.4357 20.3237C50.5601 20.8217 49.5217 21.0706 48.3205 21.0706C47.1193 21.0706 46.0809 20.8217 45.2052 20.3237C44.3408 19.8148 43.6729 19.1066 43.2014 18.1992C42.7299 17.2919 42.4941 16.2352 42.4941 15.0291ZM45.2389 15.0291C45.2389 16.2352 45.4915 17.1813 45.9967 17.8673C46.5131 18.5423 47.2877 18.8798 48.3205 18.8798C49.3308 18.8798 50.0998 18.5423 50.6274 17.8673C51.1551 17.1813 51.4189 16.2352 51.4189 15.0291C51.4189 13.8119 51.1551 12.8714 50.6274 12.2075C50.111 11.5325 49.3421 11.195 48.3205 11.195C47.2877 11.195 46.5131 11.5325 45.9967 12.2075C45.4915 12.8714 45.2389 13.8119 45.2389 15.0291Z" fill="white"/>
<path d="M56.2336 20.8881V9.18672H58.1869L64.6363 17.2698H64.1816V9.18672H66.6233V20.8881H64.67L58.2374 12.805H58.6752V20.8881H56.2336Z" fill="white"/>
<path d="M77.6658 24.0748C77.2953 23.8867 76.9193 23.6267 76.5376 23.2947C76.1671 22.9738 75.8191 22.6087 75.4936 22.1993C75.1792 21.8009 74.9098 21.386 74.6853 20.9545L76.7228 20.0582C77.0035 20.6225 77.3908 21.137 77.8847 21.6018C78.3787 22.0776 78.8951 22.4648 79.4339 22.7636L77.6658 24.0748ZM68.6737 15.0291C68.6737 13.8119 68.9039 12.7552 69.3641 11.8589C69.8356 10.9516 70.5092 10.249 71.3848 9.75104C72.2605 9.25312 73.2989 9.00415 74.5001 9.00415C75.7012 9.00415 76.7397 9.25312 77.6153 9.75104C78.4909 10.249 79.1645 10.9516 79.636 11.8589C80.1187 12.7552 80.3601 13.8064 80.3601 15.0125C80.3601 16.2407 80.1187 17.3085 79.636 18.2158C79.1645 19.1121 78.4909 19.8148 77.6153 20.3237C76.7397 20.8217 75.7012 21.0706 74.5001 21.0706C73.2989 21.0706 72.2605 20.8217 71.3848 20.3237C70.5204 19.8148 69.8525 19.1066 69.381 18.1992C68.9095 17.2919 68.6737 16.2352 68.6737 15.0291ZM71.4185 15.0291C71.4185 16.2352 71.6711 17.1813 72.1763 17.8673C72.6927 18.5423 73.4673 18.8798 74.5001 18.8798C75.5104 18.8798 76.2794 18.5423 76.807 17.8673C77.3346 17.1813 77.5985 16.2352 77.5985 15.0291C77.5985 13.8119 77.3346 12.8714 76.807 12.2075C76.2906 11.5325 75.5216 11.195 74.5001 11.195C73.4673 11.195 72.6927 11.5325 72.1763 12.2075C71.6711 12.8714 71.4185 13.8119 71.4185 15.0291Z" fill="white"/>
<path d="M87.5154 21.0706C85.7753 21.0706 84.4787 20.6446 83.6255 19.7926C82.7724 18.9406 82.3458 17.6737 82.3458 15.9918V9.18672H84.9727V16.0084C84.9727 16.9489 85.1747 17.6626 85.5789 18.1495C85.9943 18.6363 86.6397 18.8798 87.5154 18.8798C88.3686 18.8798 89.0028 18.6363 89.4182 18.1495C89.8448 17.6626 90.0581 16.9489 90.0581 16.0084V9.18672H92.6513V15.9918C92.6513 17.6737 92.2191 18.9406 91.3547 19.7926C90.5015 20.6446 89.2217 21.0706 87.5154 21.0706Z" fill="white"/>
<path d="M94.9767 20.8881V9.18672H97.6036V20.8881H94.9767Z" fill="white"/>
<path d="M102.753 20.8881V11.2946H98.9815V9.18672H109.152V11.2946H105.38V20.8881H102.753Z" fill="white"/>
<path d="M113.709 20.8881V15.3279L114.247 16.805L109.044 9.18672H112.075L115.342 14.1992H114.803L118.07 9.18672H121L115.814 16.805L116.336 15.3279V20.8881H113.709Z" fill="white"/>
<path fill-rule="evenodd" clip-rule="evenodd" d="M22.2985 29.4738C27.4248 29.4738 31.5804 25.3737 31.5804 20.3159C31.5804 15.2582 27.4248 11.1581 22.2985 11.1581C17.1722 11.1581 13.0166 15.2582 13.0166 20.3159C13.0166 25.3737 17.1722 29.4738 22.2985 29.4738ZM22.2985 32C28.8389 32 34.1409 26.7689 34.1409 20.3159C34.1409 13.863 28.8389 8.63184 22.2985 8.63184C15.7581 8.63184 10.4561 13.863 10.4561 20.3159C10.4561 26.7689 15.7581 32 22.2985 32Z" fill="#FAFAFA"/>
<path fill-rule="evenodd" clip-rule="evenodd" d="M20.404 8.14077C19.0001 4.84256 15.6954 2.52629 11.8424 2.52629C6.71618 2.52629 2.56053 6.62639 2.56053 11.6841C2.56053 16.0562 5.66589 19.7127 9.81919 20.6237C9.84169 21.5277 9.9629 22.4074 10.1726 23.253C4.4229 22.4524 0 17.5778 0 11.6841C0 5.23115 5.30204 0 11.8424 0C17.0873 0 21.5358 3.36402 23.0924 8.02447C22.8297 8.00819 22.5648 7.99993 22.2979 7.99993C21.6541 7.99993 21.0216 8.04802 20.404 8.14077ZM13.6633 20.6658C17.859 19.8424 21.0357 16.2286 21.1225 11.8676C21.5069 11.816 21.8993 11.7894 22.2979 11.7894C22.7694 11.7894 23.232 11.8266 23.6829 11.8983C23.5813 17.4787 19.5144 22.1039 14.1443 23.1476C13.8655 22.3662 13.6988 21.5327 13.6633 20.6658Z" fill="#FAFAFA"/>
<path fill-rule="evenodd" clip-rule="evenodd" d="M22.2985 29.4738C27.4248 29.4738 31.5804 25.3737 31.5804 20.3159C31.5804 15.2582 27.4248 11.1581 22.2985 11.1581C17.1722 11.1581 13.0166 15.2582 13.0166 20.3159C13.0166 25.3737 17.1722 29.4738 22.2985 29.4738ZM22.1918 32L22.1927 31.9996C15.701 31.9436 10.4561 26.7341 10.4561 20.3159C10.4561 13.863 15.7581 8.63184 22.2985 8.63184C28.8389 8.63184 34.1409 13.863 34.1409 20.3159C34.1409 22.8716 33.3093 25.2357 31.8984 27.159L31.9005 27.158C31.2603 31.3685 33.5008 31.6843 36.168 32H22.2985H22.1918ZM34.8878 30.5264C35.8894 30.5264 36.7015 29.7252 36.7015 28.7369C36.7015 27.7486 35.8894 26.9475 34.8878 26.9475C33.8861 26.9475 33.0741 27.7486 33.0741 28.7369C33.0741 29.7252 33.8861 30.5264 34.8878 30.5264Z" fill="#FAFAFA"/>
<path d="M31.7937 28.2103C31.7937 27.684 32.1138 26.8419 32.3271 26.5261L31.4736 27.0524L31.2603 28.2103H31.7937Z" fill="#FAFAFA"/>
<path fill-rule="evenodd" clip-rule="evenodd" d="M12.9561 12.0369L11.8277 11.6685L11.6909 13.6604C12.0646 13.0894 12.4871 12.5461 12.9561 12.0369ZM17.215 13.4274L19.9315 14.3144C19.3366 16.088 18.161 17.616 16.5895 18.6582C15.6749 19.2647 14.6565 19.6866 13.5925 19.9084C13.7153 17.9073 14.5423 16.0012 15.9445 14.5273C16.3338 14.1181 16.7597 13.7504 17.215 13.4274Z" fill="#5D9EFF"/>
<g filter="url(#filter0_d_17_648)">
<path fill-rule="evenodd" clip-rule="evenodd" d="M17.6573 5.51894C16.8387 4.76333 15.8774 4.17419 14.828 3.78516L11.8254 11.6689L12.9197 12.0746C12.9767 12.0122 13.0344 11.9503 13.0928 11.8889C14.8563 10.0352 17.1377 8.77071 19.6204 8.23643C19.6132 8.2206 19.606 8.20479 19.5988 8.189C19.1356 7.18184 18.4759 6.27456 17.6573 5.51894ZM20.3538 12.0257C19.1357 12.3025 17.9904 12.8344 16.9968 13.5861L19.816 14.6313C20.1345 13.7951 20.3156 12.9155 20.3538 12.0257Z" fill="#AFA5F9"/>
</g>
<path fill-rule="evenodd" clip-rule="evenodd" d="M3.29554 11.3807C3.23336 13.1706 3.75111 14.9335 4.77361 16.4133L11.8266 11.6693L14.8445 3.79121C13.1465 3.15804 11.2881 3.0754 9.53928 3.55531C7.79044 4.03521 6.2422 5.05266 5.1194 6.45989C3.99661 7.86712 3.35772 9.59085 3.29554 11.3807Z" fill="#867DFD"/>
<path fill-rule="evenodd" clip-rule="evenodd" d="M11.681 13.675L11.8273 11.6685L4.72998 16.3476C5.45232 17.4142 6.41204 18.3038 7.53592 18.9487C8.21018 19.3356 8.93283 19.6283 9.68315 19.8204C9.79178 17.6277 10.4846 15.5089 11.681 13.675Z" fill="#78AEFF"/>
<defs>
<filter id="filter0_d_17_648" x="8.82544" y="0.785156" width="16.5283" height="18.8462" filterUnits="userSpaceOnUse" color-interpolation-filters="sRGB">
<feFlood flood-opacity="0" result="BackgroundImageFix"/>
<feColorMatrix in="SourceAlpha" type="matrix" values="0 0 0 0 0 0 0 0 0 0 0 0 0 0 0 0 0 0 127 0" result="hardAlpha"/>
<feOffset dx="1" dy="1"/>
<feGaussianBlur stdDeviation="2"/>
<feColorMatrix type="matrix" values="0 0 0 0 0.0053125 0 0 0 0 0.2125 0 0 0 0 0.0133586 0 0 0 0.05 0"/>
<feBlend mode="normal" in2="BackgroundImageFix" result="effect1_dropShadow_17_648"/>
<feBlend mode="normal" in="SourceGraphic" in2="effect1_dropShadow_17_648" result="shape"/>
</filter>
</defs>
</svg>
