<svg width="346" height="346" viewBox="0 0 346 346" fill="none" xmlns="http://www.w3.org/2000/svg">
<path d="M346 264.621H0V264.794H346V264.621Z" fill="#EBEBEB"/>
<path d="M311.331 275.755H296.328V275.928H311.331V275.755Z" fill="#EBEBEB"/>
<path d="M238.512 272.171H214.907V272.344H238.512V272.171Z" fill="#EBEBEB"/>
<path d="M305.255 269.333H274.44V269.506H305.255V269.333Z" fill="#EBEBEB"/>
<path d="M119.73 272.821H112.021V272.994H119.73V272.821Z" fill="#EBEBEB"/>
<path d="M105.855 272.821H79.2893V272.994H105.855V272.821Z" fill="#EBEBEB"/>
<path d="M65.0549 269.901H45.8865V270.074H65.0549V269.901Z" fill="#EBEBEB"/>
<path d="M164.004 233.758H30.3858C29.3391 233.756 28.3358 233.339 27.5963 232.598C26.8568 231.857 26.4414 230.853 26.4414 229.806V41.9767C26.4505 40.936 26.8699 39.9408 27.6084 39.2075C28.347 38.4741 29.345 38.0618 30.3858 38.06H164.004C165.052 38.06 166.057 38.4763 166.798 39.2173C167.539 39.9583 167.955 40.9634 167.955 42.0113V229.806C167.955 230.854 167.539 231.859 166.798 232.6C166.057 233.341 165.052 233.758 164.004 233.758ZM30.3858 38.1984C29.3849 38.2002 28.4257 38.5991 27.7186 39.3075C27.0115 40.0159 26.6144 40.9758 26.6144 41.9767V229.806C26.6144 230.807 27.0115 231.767 27.7186 232.475C28.4257 233.184 29.3849 233.583 30.3858 233.585H164.004C165.006 233.583 165.966 233.184 166.674 232.476C167.382 231.768 167.781 230.808 167.782 229.806V41.9767C167.781 40.9752 167.382 40.0152 166.674 39.3071C165.966 38.5989 165.006 38.2002 164.004 38.1984H30.3858Z" fill="#EBEBEB"/>
<path d="M313.691 233.758H180.065C179.018 233.756 178.014 233.339 177.273 232.598C176.533 231.858 176.116 230.854 176.114 229.806V41.9767C176.125 40.9353 176.546 39.9402 177.285 39.2071C178.025 38.4739 179.024 38.0618 180.065 38.06H313.691C314.73 38.0636 315.726 38.4768 316.463 39.2099C317.2 39.9431 317.619 40.9372 317.628 41.9767V229.806C317.628 230.852 317.214 231.855 316.476 232.595C315.738 233.336 314.736 233.754 313.691 233.758ZM180.065 38.1984C179.064 38.2002 178.104 38.5989 177.396 39.3071C176.687 40.0152 176.289 40.9752 176.287 41.9767V229.806C176.289 230.808 176.687 231.768 177.396 232.476C178.104 233.184 179.064 233.583 180.065 233.585H313.691C314.692 233.583 315.652 233.184 316.36 232.476C317.068 231.768 317.467 230.808 317.469 229.806V41.9767C317.467 40.9752 317.068 40.0152 316.36 39.3071C315.652 38.5989 314.692 38.2002 313.691 38.1984H180.065Z" fill="#EBEBEB"/>
<path opacity="0.1" d="M44.7585 146.773H157.312V52.0868L44.7585 52.0868L44.7585 146.773Z" fill="#E6E6E6"/>
<path opacity="0.1" d="M42.0874 146.773H156.067V52.0868L42.0874 52.0868L42.0874 146.773Z" fill="#F0F0F0"/>
<path opacity="0.1" d="M44.7585 150.835H157.312V146.773H44.7585V150.835Z" fill="#E6E6E6"/>
<path opacity="0.1" d="M37.6239 150.835H151.603V146.773H37.6239V150.835Z" fill="#F0F0F0"/>
<path d="M150.579 139.3C150.65 139.298 150.718 139.269 150.768 139.219C150.818 139.168 150.847 139.101 150.849 139.03V58.2802C150.849 58.2086 150.821 58.14 150.77 58.0894C150.719 58.0387 150.651 58.0103 150.579 58.0103C150.508 58.0103 150.439 58.0387 150.388 58.0894C150.338 58.14 150.309 58.2086 150.309 58.2802V139.03C150.311 139.101 150.34 139.168 150.39 139.219C150.441 139.269 150.508 139.298 150.579 139.3Z" fill="#F0F0F0"/>
<path opacity="0.1" d="M46.3086 143.023L46.3086 55.8375H45.8311L45.8311 143.023H46.3086Z" fill="#E6E6E6"/>
<path opacity="0.05" d="M41.2017 62.9097H153.749L154.095 57.2976H41.5477L41.2017 62.9097Z" fill="#EBEBEB"/>
<path opacity="0.05" d="M41.2017 72.1133H153.749L154.095 66.5012H41.5477L41.2017 72.1133Z" fill="#EBEBEB"/>
<path opacity="0.05" d="M41.2017 81.317H153.749L154.095 75.7049H41.5477L41.2017 81.317Z" fill="#EBEBEB"/>
<path opacity="0.05" d="M41.2017 90.5205H153.749L154.095 84.9084H41.5477L41.2017 90.5205Z" fill="#EBEBEB"/>
<path opacity="0.05" d="M41.2017 99.731H153.749L154.095 94.1189H41.5477L41.2017 99.731Z" fill="#EBEBEB"/>
<path opacity="0.05" d="M41.2017 108.935H153.749L154.095 103.322H41.5477L41.2017 108.935Z" fill="#EBEBEB"/>
<path opacity="0.1" d="M294.058 68.1827H181.283V143.922H294.058V68.1827Z" fill="#F5F5F5"/>
<path opacity="0.2" d="M294.058 143.922H296.709V68.1828H294.058V143.922Z" fill="#E0E0E0"/>
<path opacity="0.1" d="M220.589 83.0884H198.099V117.322H220.589V83.0884Z" fill="white"/>
<path opacity="0.1" d="M233.536 126.359H211.046L211.614 92.126H234.104L233.536 126.359Z" fill="white"/>
<path opacity="0.1" d="M280.488 75.2273H257.998V109.461H280.488V75.2273Z" fill="white"/>
<path opacity="0.1" d="M260.489 134.317H239.709L241.113 102.686H261.894L260.489 134.317Z" fill="white"/>
<path opacity="0.1" d="M86.5208 176.889H44.814V264.621H86.5208V176.889Z" fill="#F5F5F5"/>
<path opacity="0.2" d="M49.5127 259.59L49.5127 181.92H48.7861L48.7861 259.59H49.5127Z" fill="#E6E6E6"/>
<path opacity="0.2" d="M81.8912 181.92H48.7859V182.84H81.8912V181.92Z" fill="#E6E6E6"/>
<path opacity="0.1" d="M128.954 176.889H87.2473V264.621H128.954V176.889Z" fill="#F5F5F5"/>
<path opacity="0.2" d="M128.961 264.621H133.12V176.889H128.961V264.621Z" fill="#E0E0E0"/>
<path opacity="0.2" d="M91.946 259.59V181.92H91.2194V259.59H91.946Z" fill="#E6E6E6"/>
<path opacity="0.2" d="M87.2473 264.621V177.623H86.5207V264.621H87.2473Z" fill="#E6E6E6"/>
<path opacity="0.2" d="M124.325 181.92H91.2195V182.84H124.325V181.92Z" fill="#E6E6E6"/>
<path opacity="0.2" d="M84.3686 182.377C84.5755 182.378 84.7733 182.461 84.9196 182.608C85.0658 182.754 85.1488 182.952 85.1506 183.159V195.871C85.1488 196.077 85.0658 196.275 84.9196 196.421C84.7733 196.568 84.5755 196.651 84.3686 196.653C84.1618 196.651 83.964 196.568 83.8177 196.421C83.6714 196.275 83.5885 196.077 83.5867 195.871V183.159C83.5885 182.952 83.6714 182.754 83.8177 182.608C83.964 182.461 84.1618 182.378 84.3686 182.377Z" fill="#E0E0E0"/>
<path opacity="0.2" d="M89.4065 182.377C89.6138 182.377 89.8127 182.459 89.9594 182.606C90.106 182.752 90.1884 182.951 90.1884 183.159V195.871C90.1884 196.078 90.106 196.277 89.9594 196.424C89.8127 196.57 89.6138 196.653 89.4065 196.653C89.1996 196.651 89.0018 196.568 88.8555 196.421C88.7093 196.275 88.6263 196.077 88.6245 195.871V183.159C88.6263 182.952 88.7093 182.754 88.8555 182.608C89.0018 182.461 89.1996 182.378 89.4065 182.377Z" fill="#E0E0E0"/>
<path opacity="0.1" d="M173 295.872C247.101 295.872 307.172 292.364 307.172 288.038C307.172 283.712 247.101 280.205 173 280.205C98.8989 280.205 38.8281 283.712 38.8281 288.038C38.8281 292.364 98.8989 295.872 173 295.872Z" fill="#F5F5F5"/>
<path d="M259.383 189.006C261.777 200.279 248.933 205.046 243.598 200.078C238.263 195.109 238.526 179.92 231.329 179.519C241.716 171.477 257.051 178.038 259.383 189.006Z" fill="#027125"/>
<path d="M248.906 259.334C248.612 259.334 248.328 259.226 248.109 259.031C247.89 258.836 247.75 258.567 247.716 258.275C245.058 235.917 248.408 182.508 275.797 160.115C275.918 160.005 276.06 159.92 276.214 159.867C276.369 159.814 276.533 159.792 276.696 159.804C276.859 159.816 277.018 159.861 277.163 159.937C277.308 160.012 277.436 160.116 277.54 160.243C277.643 160.369 277.72 160.516 277.765 160.673C277.81 160.83 277.823 160.995 277.802 161.157C277.782 161.319 277.728 161.475 277.645 161.616C277.562 161.757 277.451 161.88 277.319 161.976C250.719 183.733 247.494 236.062 250.103 257.991C250.138 258.307 250.048 258.625 249.851 258.875C249.654 259.125 249.367 259.287 249.051 259.327L248.906 259.334Z" fill="#1BA046"/>
<path d="M239.149 288.038H258.649C259.303 288.038 259.938 287.815 260.449 287.407C260.959 286.998 261.315 286.427 261.459 285.789L269.596 249.715C269.691 249.293 269.689 248.855 269.592 248.434C269.494 248.013 269.303 247.619 269.032 247.281C268.762 246.944 268.419 246.671 268.029 246.484C267.639 246.297 267.213 246.2 266.78 246.2H231.018C230.585 246.199 230.158 246.296 229.769 246.484C229.379 246.671 229.037 246.943 228.767 247.281C228.497 247.619 228.306 248.013 228.21 248.434C228.113 248.856 228.112 249.293 228.208 249.715L236.339 285.796C236.485 286.432 236.842 287.001 237.352 287.408C237.862 287.815 238.496 288.037 239.149 288.038Z" fill="#407BFF"/>
<path opacity="0.6" d="M239.149 288.038H258.649C259.303 288.038 259.938 287.815 260.449 287.407C260.959 286.998 261.315 286.427 261.459 285.789L269.596 249.715C269.691 249.293 269.689 248.855 269.592 248.434C269.494 248.013 269.303 247.619 269.032 247.281C268.762 246.944 268.419 246.671 268.029 246.484C267.639 246.297 267.213 246.2 266.78 246.2H231.018C230.585 246.199 230.158 246.296 229.769 246.484C229.379 246.671 229.037 246.943 228.767 247.281C228.497 247.619 228.306 248.013 228.21 248.434C228.113 248.856 228.112 249.293 228.208 249.715L236.339 285.796C236.485 286.432 236.842 287.001 237.352 287.408C237.862 287.815 238.496 288.037 239.149 288.038Z" fill="#78AEFF"/>
<path d="M257.21 191.255C257.117 191.253 257.024 191.242 256.933 191.22C256.78 191.184 256.635 191.119 256.507 191.027C256.38 190.935 256.271 190.819 256.188 190.686C256.105 190.552 256.05 190.403 256.024 190.248C255.999 190.093 256.004 189.934 256.04 189.781C256.04 189.608 259.95 172.592 254.006 162.592C253.843 162.317 253.797 161.988 253.877 161.679C253.957 161.369 254.156 161.104 254.431 160.942C254.707 160.779 255.035 160.733 255.345 160.813C255.654 160.893 255.919 161.092 256.082 161.367C262.545 172.197 258.594 189.608 258.407 190.3C258.349 190.573 258.198 190.818 257.98 190.992C257.761 191.166 257.489 191.259 257.21 191.255Z" fill="#1BA046"/>
<path d="M267.327 155.949C266.842 166.813 290.426 171.997 297.982 167.402C305.539 162.807 300.204 148.026 312.417 147.915C291.996 139.645 267.797 145.375 267.327 155.949Z" fill="#1BA046"/>
<path d="M261.618 157.534C266.102 166.384 253.75 171.616 247.418 168.156C241.086 164.696 238.574 152.392 231.128 152.842C240.339 145.251 257.251 148.918 261.618 157.534Z" fill="#1BA046"/>
<path d="M248.214 241.058H248.165C247.848 241.044 247.549 240.905 247.332 240.672C247.116 240.439 247 240.13 247.01 239.813C247.01 239.633 247.542 221.71 237.474 219.544C237.163 219.477 236.891 219.289 236.718 219.022C236.546 218.754 236.487 218.429 236.554 218.118C236.62 217.807 236.808 217.536 237.076 217.363C237.343 217.19 237.668 217.131 237.979 217.198C250.013 219.779 249.445 239.079 249.411 239.902C249.4 240.213 249.269 240.507 249.046 240.722C248.823 240.938 248.524 241.058 248.214 241.058Z" fill="#1BA046"/>
<path d="M244.823 215.42C247.951 221.218 238.36 228.284 233.619 227.184C228.879 226.083 227.391 217.066 221.696 219.239C228.99 211.06 241.778 209.78 244.823 215.42Z" fill="#1BA046"/>
<path d="M249.452 224.104C249.365 224.114 249.277 224.114 249.19 224.104C248.88 224.033 248.61 223.843 248.439 223.575C248.269 223.307 248.21 222.983 248.276 222.672C248.456 221.855 252.843 202.638 265.95 197.524C266.099 197.459 266.259 197.424 266.422 197.422C266.585 197.42 266.746 197.451 266.897 197.513C267.047 197.575 267.183 197.667 267.297 197.783C267.411 197.899 267.5 198.037 267.559 198.189C267.618 198.341 267.646 198.503 267.64 198.666C267.635 198.828 267.597 198.988 267.528 199.135C267.459 199.283 267.361 199.415 267.239 199.523C267.118 199.632 266.976 199.714 266.822 199.766C254.899 204.417 250.663 223.004 250.622 223.191C250.558 223.452 250.408 223.685 250.196 223.85C249.984 224.016 249.722 224.106 249.452 224.104Z" fill="#1BA046"/>
<path d="M263.846 191.213C254.4 196.154 260.773 206.714 268.136 207.129C275.499 207.545 285.644 198.763 291.298 202.929C288.986 192.044 273.05 186.404 263.846 191.213Z" fill="#1BA046"/>
<path d="M136.857 149.534C136.556 149.311 136.355 148.977 136.299 148.606C136.244 148.235 136.337 147.857 136.559 147.555L196.113 66.5358C196.336 66.2347 196.67 66.0343 197.041 65.9786C197.412 65.9228 197.79 66.0162 198.092 66.2383C198.393 66.4618 198.593 66.7955 198.649 67.1664C198.705 67.5373 198.611 67.9152 198.389 68.2174L138.836 149.23C138.729 149.383 138.592 149.513 138.433 149.612C138.274 149.711 138.096 149.777 137.911 149.806C137.726 149.834 137.538 149.825 137.356 149.778C137.175 149.731 137.005 149.649 136.857 149.534Z" fill="#407BFF"/>
<path d="M227.201 102.401L224.993 105.433L225.564 105.85L227.773 102.817L227.201 102.401Z" fill="#407BFF"/>
<path d="M230.138 101.032L229.564 100.617C230.268 99.656 230.562 98.4555 230.383 97.278C230.204 96.1005 229.567 95.0418 228.609 94.3335L213.44 83.1853L213.856 82.6179L229.052 93.7453C229.602 94.1519 230.067 94.6631 230.42 95.2496C230.772 95.8361 231.006 96.4864 231.107 97.1633C231.208 97.8401 231.174 98.5302 231.008 99.1941C230.842 99.8579 230.546 100.482 230.138 101.032Z" fill="#407BFF"/>
<path d="M204.832 126.698L138.4 77.8777C138.111 77.6656 137.867 77.3987 137.682 77.0922C137.496 76.7858 137.373 76.4458 137.319 76.0917C137.265 75.7376 137.282 75.3763 137.367 75.0286C137.453 74.6808 137.606 74.3533 137.819 74.0648L157.347 47.4989C157.558 47.2095 157.825 46.9649 158.131 46.7789C158.438 46.593 158.778 46.4694 159.132 46.4154C159.487 46.3614 159.848 46.3779 160.196 46.4641C160.544 46.5503 160.872 46.7044 161.16 46.9176L227.592 95.7382C227.88 95.9497 228.124 96.216 228.309 96.5219C228.495 96.8277 228.618 97.1671 228.672 97.5207C228.726 97.8742 228.71 98.2349 228.624 98.5821C228.538 98.9294 228.385 99.2563 228.173 99.5442L208.645 126.117C208.433 126.406 208.167 126.651 207.86 126.837C207.554 127.023 207.214 127.147 206.859 127.201C206.505 127.255 206.143 127.238 205.795 127.152C205.448 127.066 205.12 126.911 204.832 126.698Z" fill="#333038"/>
<path d="M206.41 127.584C205.755 127.583 205.118 127.375 204.59 126.989L138.158 78.1614C137.831 77.9231 137.554 77.6223 137.343 77.2764C137.133 76.9306 136.993 76.5465 136.932 76.1463C136.871 75.7461 136.89 75.3378 136.987 74.9449C137.085 74.552 137.259 74.1823 137.5 73.8572L157.029 47.2844C157.508 46.6227 158.231 46.1782 159.038 46.0485C159.845 45.9187 160.67 46.1143 161.333 46.5924L227.765 95.4199C228.42 95.9045 228.858 96.6281 228.983 97.4336C229.045 97.834 229.027 98.2428 228.93 98.6361C228.832 99.0294 228.658 99.3993 228.415 99.7241L208.887 126.297C208.402 126.952 207.679 127.39 206.873 127.515C206.72 127.548 206.566 127.571 206.41 127.584ZM205.026 126.415C205.524 126.779 206.144 126.933 206.755 126.845C207.365 126.757 207.917 126.434 208.292 125.944L227.827 99.3712C228.199 98.8655 228.354 98.233 228.259 97.6128C228.165 96.9925 227.827 96.4352 227.322 96.0635L160.89 47.2359C160.64 47.0511 160.356 46.9175 160.054 46.8429C159.752 46.7682 159.438 46.7539 159.131 46.8009C158.824 46.8478 158.529 46.955 158.263 47.1164C157.997 47.2778 157.766 47.4901 157.582 47.7411L138.047 74.3139C137.675 74.8192 137.518 75.4511 137.611 76.0716C137.657 76.3796 137.764 76.6754 137.925 76.9415C138.087 77.2077 138.3 77.4389 138.552 77.6217L205.026 126.415Z" fill="#407BFF"/>
<path d="M151.112 66.7296L154.378 68.8056C154.104 69.2445 153.951 69.7484 153.935 70.2657C153.95 70.6078 154.046 70.9414 154.216 71.2388C154.385 71.5362 154.624 71.7886 154.911 71.9749C155.281 72.2843 155.751 72.449 156.233 72.4386C156.416 72.4333 156.596 72.3871 156.758 72.3033C156.921 72.2194 157.063 72.1001 157.174 71.9542C157.275 71.81 157.344 71.6456 157.375 71.4723C157.406 71.299 157.399 71.121 157.354 70.9508C157.085 70.253 156.667 69.6225 156.129 69.1031C155.152 68.1016 154.422 66.8861 153.998 65.5532C153.879 65.0779 153.869 64.5818 153.97 64.1023C154.071 63.6229 154.279 63.1725 154.579 62.7852C154.987 62.238 155.548 61.8239 156.191 61.5949C156.932 61.3612 157.726 61.3588 158.468 61.588C159.531 61.8852 160.522 62.3962 161.381 63.0896C162.52 63.8163 163.408 64.874 163.928 66.1206C164.091 66.6807 164.131 67.2694 164.045 67.8464C163.959 68.4233 163.749 68.9748 163.43 69.463L160.205 67.387C160.341 67.183 160.434 66.9534 160.477 66.7122C160.521 66.471 160.515 66.2234 160.459 65.9848C160.403 65.7461 160.299 65.5214 160.153 65.3245C160.007 65.1277 159.822 64.9629 159.61 64.8404C159.318 64.5907 158.949 64.4511 158.565 64.446C158.428 64.4531 158.295 64.491 158.175 64.5569C158.055 64.6228 157.952 64.715 157.873 64.8266C157.807 64.9161 157.764 65.02 157.748 65.1296C157.731 65.2392 157.74 65.3512 157.776 65.4563C157.952 65.9112 158.229 66.3205 158.586 66.6534C159.508 67.6225 160.312 68.6981 160.98 69.8574C161.343 70.5191 161.511 71.2701 161.464 72.0234C161.401 72.7059 161.149 73.3574 160.738 73.9056C160.249 74.5791 159.569 75.0902 158.786 75.3726C157.975 75.6711 157.094 75.7216 156.254 75.518C155.202 75.2486 154.218 74.7605 153.368 74.0855C151.562 72.7638 150.6 71.4974 150.385 70.2934C150.185 69.0566 150.443 67.789 151.112 66.7296Z" fill="#F4F2FF"/>
<path d="M163.312 72.9229C163.781 72.1306 164.42 71.4521 165.182 70.9362C165.945 70.4204 166.813 70.08 167.723 69.9397C168.632 69.7994 169.562 69.8626 170.445 70.1248C171.328 70.387 172.141 70.8416 172.827 71.4559C174.594 72.7569 175.606 74.2308 175.865 75.8778C175.97 76.7755 175.892 77.6853 175.633 78.5515C175.375 79.4177 174.943 80.2222 174.363 80.9156C173.632 81.9992 172.649 82.8895 171.498 83.5105C170.516 83.9929 169.413 84.1735 168.329 84.0295C167.065 83.8358 165.873 83.3185 164.869 82.5279C163.821 81.8105 162.95 80.8639 162.322 79.7599C161.81 78.7723 161.608 77.6534 161.741 76.549C161.927 75.2206 162.47 73.9676 163.312 72.9229ZM166.578 75.3449C165.902 76.1123 165.513 77.0907 165.478 78.1129C165.52 78.4899 165.639 78.8542 165.828 79.1832C166.017 79.5121 166.272 79.7988 166.576 80.0252C166.88 80.2517 167.228 80.4132 167.598 80.4997C167.967 80.5862 168.35 80.5958 168.723 80.528C169.45 80.355 170.246 79.67 171.118 78.452C171.757 77.7219 172.114 76.7862 172.121 75.8155C172.086 75.4354 171.967 75.0678 171.772 74.7397C171.577 74.4117 171.311 74.1314 170.993 73.9194C170.703 73.6933 170.366 73.5344 170.007 73.4542C169.648 73.374 169.276 73.3745 168.917 73.4558C167.933 73.7893 167.098 74.458 166.557 75.3449H166.578Z" fill="#F4F2FF"/>
<path d="M172.197 87.635L179.996 77.0197L185.456 81.0402C186.261 81.5847 186.979 82.2472 187.587 83.0055C187.993 83.5602 188.2 84.2354 188.176 84.9223C188.123 85.6278 187.886 86.307 187.488 86.8914C187.089 87.4758 186.543 87.9447 185.906 88.2508C185.34 88.4961 184.72 88.5914 184.107 88.5276C183.601 88.4614 183.109 88.3191 182.646 88.1055C182.885 88.4145 183.076 88.7573 183.214 89.1228C183.289 89.4309 183.328 89.7467 183.332 90.0639C183.36 90.3954 183.36 90.7288 183.332 91.0604L182.64 95.3023L178.937 92.5828L179.567 88.0502C179.652 87.637 179.652 87.2108 179.567 86.7976C179.451 86.4611 179.233 86.1687 178.944 85.9603L178.654 85.7458L175.491 90.05L172.197 87.635ZM180.128 83.7321L181.512 84.7493C181.82 84.946 182.147 85.1128 182.487 85.2476C182.73 85.359 183.006 85.3787 183.262 85.3029C183.569 85.2057 183.831 85.0009 183.998 84.7262C184.166 84.4516 184.229 84.1256 184.176 83.8082C183.971 83.317 183.612 82.9062 183.152 82.6387L181.712 81.58L180.128 83.7321Z" fill="#F4F2FF"/>
<path d="M183.726 96.105L191.525 85.4967L196.985 89.5103C197.789 90.0585 198.507 90.7231 199.116 91.4825C199.52 92.0381 199.727 92.7127 199.704 93.3993C199.666 94.1548 199.396 94.88 198.929 95.4753C198.554 96.0192 198.037 96.4499 197.434 96.7209C196.867 96.9629 196.249 97.0581 195.635 96.9977C195.129 96.9318 194.636 96.7871 194.175 96.5687C194.411 96.8794 194.602 97.2219 194.742 97.5859C194.817 97.8965 194.857 98.2145 194.86 98.5339C194.888 98.8655 194.888 99.1989 194.86 99.5304L194.168 103.772L190.459 101.032L191.089 96.5064C191.174 96.0909 191.174 95.6624 191.089 95.2469C190.97 94.9114 190.753 94.6196 190.466 94.4096L190.175 94.202L187.013 98.5063L183.726 96.105ZM191.684 92.216L193.068 93.2332C193.376 93.4295 193.703 93.5942 194.044 93.7246C194.285 93.8415 194.562 93.8637 194.819 93.7868C195.082 93.7078 195.313 93.5451 195.476 93.3232C195.593 93.1816 195.677 93.0154 195.722 92.8369C195.766 92.6584 195.769 92.4722 195.732 92.2921C195.528 91.7986 195.169 91.3854 194.708 91.1157L193.269 90.057L191.684 92.216Z" fill="#F4F2FF"/>
<path d="M201.303 92.6865L204.943 95.3576L204.444 100.513L209.219 98.5062L212.845 101.17L204.188 104.305L200.922 108.748L197.635 106.333L200.901 101.89L201.303 92.6865Z" fill="#F4F2FF"/>
<path d="M213.71 101.807L216.859 104.118L215.08 106.54L210.928 110.948L208.984 109.516L211.959 104.222L213.71 101.807ZM207.932 109.897L210.866 112.056L208.984 114.658L206.05 112.498L207.932 109.897Z" fill="#F4F2FF"/>
<path d="M154.627 101.267C154.897 101.849 155.077 102.264 155.278 102.748C155.478 103.233 155.651 103.682 155.831 104.132C156.191 105.059 156.523 106.001 156.8 106.942C157.391 108.829 157.881 110.746 158.267 112.685C158.475 113.654 158.634 114.637 158.793 115.619C158.952 116.602 159.056 117.605 159.132 118.609C159.311 120.634 159.355 122.668 159.264 124.698V125.044C159.257 125.267 159.224 125.487 159.167 125.702C158.809 127.072 158.214 128.37 157.409 129.536C156.783 130.456 156.089 131.328 155.333 132.144C153.988 133.614 152.533 134.979 150.98 136.227C149.486 137.438 147.956 138.559 146.392 139.604C144.827 140.653 143.211 141.623 141.548 142.511C140.994 142.808 140.352 142.899 139.737 142.766C139.122 142.634 138.574 142.287 138.192 141.788C137.809 141.289 137.616 140.67 137.648 140.041C137.68 139.413 137.934 138.817 138.365 138.359L138.421 138.296L142.005 134.428C143.188 133.127 144.351 131.833 145.465 130.525C146.526 129.281 147.519 127.98 148.441 126.629C148.838 126.051 149.19 125.442 149.493 124.809C149.689 124.462 149.811 124.078 149.852 123.681L149.749 124.692C149.61 123.086 149.444 121.481 149.147 119.848C148.849 118.214 148.517 116.609 148.088 115.004C147.659 113.398 147.202 111.772 146.704 110.16C146.441 109.364 146.157 108.575 145.887 107.793L145.458 106.637L145.057 105.585L144.953 105.316C144.482 104.038 144.521 102.629 145.063 101.38C145.605 100.132 146.608 99.14 147.863 98.6121C149.117 98.0842 150.527 98.0605 151.799 98.5461C153.071 99.0317 154.106 99.9891 154.69 101.219L154.627 101.267Z" fill="#F2B27E"/>
<path d="M120.228 61.7264C115.751 66.0168 116.311 86.9913 118.152 106.949C119.993 126.906 136.898 123.605 143.175 114.955C151.479 103.454 142.137 86.237 143.479 79.4554C144.939 72.0856 146.033 63.747 137.189 58.6954C127.584 53.194 119.259 57.346 120.228 61.7264Z" fill="#263238"/>
<path d="M117.072 108.845H117.038C116.938 108.834 116.846 108.785 116.783 108.707C116.719 108.629 116.689 108.529 116.699 108.43C117.259 102.894 116.747 95.6898 116.256 88.7283C115.329 75.6495 114.45 63.2903 120.325 61.3666C120.372 61.3505 120.422 61.3439 120.472 61.3474C120.522 61.3509 120.57 61.3644 120.615 61.3869C120.659 61.4095 120.699 61.4408 120.731 61.4789C120.763 61.517 120.787 61.5612 120.802 61.6088C120.833 61.7042 120.825 61.8079 120.779 61.8973C120.734 61.9867 120.655 62.0546 120.56 62.0863C115.252 63.8232 116.145 76.4591 117.01 88.6798C117.508 95.669 118.02 102.894 117.453 108.506C117.443 108.599 117.398 108.686 117.328 108.748C117.258 108.811 117.167 108.845 117.072 108.845Z" fill="#263238"/>
<path d="M125.363 104.374L123.653 109.218C123.079 110.858 122.539 112.499 122.006 114.132C121.474 115.765 120.989 117.398 120.546 118.976C120.103 120.553 119.73 122.18 119.46 123.702V122.913C119.427 123.771 119.541 124.627 119.799 125.446C119.951 125.909 120.131 126.387 120.346 126.885C120.56 127.383 120.844 127.861 121.134 128.366C121.753 129.409 122.447 130.406 123.21 131.349C123.605 131.84 124.02 132.331 124.456 132.809L125.722 134.193L125.999 134.49C126.4 134.934 126.638 135.5 126.674 136.096C126.711 136.693 126.544 137.284 126.2 137.773C125.857 138.262 125.358 138.619 124.784 138.787C124.211 138.956 123.597 138.924 123.044 138.698C122.588 138.504 122.256 138.372 121.882 138.199C121.508 138.026 121.19 137.86 120.809 137.673C120.113 137.304 119.421 136.903 118.733 136.469C117.358 135.576 116.078 134.544 114.913 133.39C113.653 132.133 112.573 130.708 111.703 129.155C111.245 128.304 110.856 127.418 110.54 126.505C110.211 125.536 109.979 124.537 109.848 123.522C109.838 123.407 109.838 123.291 109.848 123.176V122.733C110.128 118.828 110.791 114.96 111.827 111.184C112.298 109.35 112.858 107.551 113.439 105.765C114.021 103.98 114.65 102.264 115.419 100.437C115.941 99.1564 116.945 98.1317 118.215 97.5828C119.484 97.0338 120.919 97.0042 122.21 97.5004C123.501 97.9965 124.546 98.9789 125.121 100.237C125.696 101.495 125.756 102.928 125.286 104.229L125.363 104.374Z" fill="#F2B27E"/>
<path d="M123.176 93.9598C117.64 95.0047 116.484 97.2607 112.422 105.641C113.647 111.177 121.356 116.021 121.356 116.021C121.356 116.021 132.255 101.094 123.176 93.9598Z" fill="#867DFD"/>
<path d="M114.401 104.402C114.311 107.343 114.602 110.9 115.259 117.896C115.709 123.826 114.228 135.099 116.097 135.888H146.012C146.614 127.397 146.392 121.55 151.762 102.596C152.079 101.605 152.17 100.555 152.028 99.5247C151.887 98.4939 151.517 97.5078 150.945 96.6386C150.373 95.7695 149.614 95.0393 148.723 94.5015C147.832 93.9638 146.833 93.6321 145.797 93.5307C144.607 93.4131 143.354 93.3093 142.06 93.247C137.541 92.9249 133.003 92.9249 128.483 93.247C127.009 93.3854 125.48 93.5722 124.013 93.7729C121.426 94.154 119.053 95.4229 117.299 97.3622C115.546 99.3014 114.521 101.79 114.401 104.402Z" fill="#867DFD"/>
<path d="M128.02 100.568C127.868 101.129 127.535 101.523 127.328 101.454C127.12 101.385 127.009 100.88 127.169 100.319C127.328 99.7588 127.646 99.3713 127.895 99.4405C128.144 99.5097 128.186 100.015 128.02 100.568Z" fill="white"/>
<path d="M126.927 105.184C126.85 105.758 126.588 106.201 126.338 106.167C126.089 106.132 125.937 105.648 126.006 105.073C126.075 104.499 126.338 104.056 126.594 104.091C126.85 104.125 126.996 104.617 126.927 105.184Z" fill="white"/>
<path d="M139.182 78.4659C139.05 82.9847 138.49 90.3683 141.313 93.2816C141.313 93.2816 137.161 92.6658 128.387 98.1256C125.84 94.4719 127.729 93.2816 127.729 93.2816C130.234 92.8249 132.421 90.2784 131.051 87.1159L139.182 78.4659Z" fill="#F2B27E"/>
<path d="M130.234 97.0046C133.127 97.4129 134.033 101.786 134.033 101.786C134.033 101.786 140.953 96.8662 143.189 93.3993C142.314 92.9069 141.467 92.3687 140.649 91.7869C140.649 91.7869 131.923 95.33 130.234 97.0046Z" fill="white"/>
<path d="M127.48 96.534C127.48 96.534 125.183 97.0322 124.02 100.229C123.328 93.856 126.38 93.2678 126.38 93.2678C127.177 92.8269 128.107 92.694 128.996 92.8941C128.359 93.2298 127.859 93.7769 127.583 94.4413C127.306 95.1057 127.27 95.8457 127.48 96.534Z" fill="white"/>
<path opacity="0.2" d="M134.096 84.4241L132.954 85.1161L131.051 87.1367C131.543 88.1676 131.61 89.3507 131.238 90.4306C133.404 89.5864 135.59 87.891 136.172 86.0572V86.0157C136.262 85.7426 136.266 85.448 136.181 85.1728C136.097 84.8977 135.929 84.6557 135.7 84.4806C135.472 84.3055 135.195 84.2059 134.907 84.1958C134.619 84.1857 134.336 84.2655 134.096 84.4241Z" fill="#E0A473"/>
<path d="M137.708 67.8713C139.784 74.736 140.822 77.5593 138.815 82.4518C135.805 89.7662 127.183 91.2332 123.148 85.2198C119.522 79.8083 116.713 69.4837 122.083 64.0584C127.452 58.6331 135.632 60.9998 137.708 67.8713Z" fill="#F2B27E"/>
<path d="M128.366 74.0856C128.567 74.653 128.442 75.2343 128.089 75.3866C127.736 75.5388 127.286 75.1997 127.086 74.6323C126.885 74.0648 127.01 73.4766 127.362 73.3244C127.715 73.1721 128.165 73.5112 128.366 74.0856Z" fill="#263238"/>
<path d="M121.792 77.0404C121.992 77.6078 121.868 78.196 121.515 78.3483C121.162 78.5005 120.719 78.1614 120.519 77.5871C120.318 77.0127 120.442 76.4384 120.795 76.2861C121.148 76.1339 121.577 76.473 121.792 77.0404Z" fill="#263238"/>
<path d="M120.948 76.2515L119.515 76.4106C119.515 76.4106 120.553 77.1926 120.948 76.2515Z" fill="#263238"/>
<path d="M123.716 76.7152C123.69 78.2242 123.474 79.7239 123.072 81.1786C124.034 81.573 125.148 80.7288 125.148 80.7288L123.716 76.7152Z" fill="#E0A473"/>
<path d="M128.241 80.8118C128.567 80.7475 128.899 80.7128 129.231 80.708C129.253 80.708 129.276 80.7125 129.296 80.7213C129.317 80.73 129.335 80.7429 129.351 80.759C129.366 80.7752 129.379 80.7943 129.386 80.8153C129.394 80.8363 129.398 80.8586 129.397 80.881C129.394 80.9288 129.373 80.9736 129.338 81.0068C129.304 81.04 129.258 81.0593 129.21 81.0609C128.46 81.0706 127.722 81.2485 127.05 81.5814C126.379 81.9144 125.79 82.3939 125.328 82.9847C125.316 83.0028 125.3 83.0184 125.282 83.0305C125.263 83.0426 125.243 83.051 125.221 83.0552C125.2 83.0593 125.178 83.0592 125.156 83.0549C125.135 83.0505 125.114 83.0419 125.096 83.0296C125.078 83.0174 125.063 83.0017 125.05 82.9834C125.038 82.9651 125.03 82.9446 125.026 82.9231C125.022 82.9015 125.022 82.8794 125.026 82.8579C125.03 82.8364 125.039 82.816 125.051 82.7978C125.831 81.7626 126.968 81.0546 128.241 80.8118Z" fill="#263238"/>
<path d="M141.272 72.3694C141.313 73.0531 141.211 73.7378 140.972 74.38C140.734 75.0221 140.365 75.6077 139.888 76.0992C138.649 77.2549 137.12 75.9262 136.725 74.0232C136.365 72.2932 136.58 69.6152 138.185 69.2208C139.791 68.8263 141.223 70.5217 141.272 72.3694Z" fill="#FFB573"/>
<path d="M132.172 61.1036C126.982 66.6811 133.943 79.8845 133.231 89.3787C132.366 101.018 139.5 102.727 143.991 93.4062C140.649 84.5901 144.102 71.3867 143.202 66.7573C142.157 61.4496 135.86 58.5155 132.172 61.1036Z" fill="#263238"/>
<path d="M125.453 69.4422C125.498 69.4361 125.545 69.4397 125.589 69.4528C125.633 69.4659 125.674 69.4883 125.709 69.5183C126.021 69.8085 126.402 70.0162 126.815 70.1225C127.228 70.2288 127.661 70.2305 128.075 70.1273C128.117 70.1136 128.162 70.1087 128.206 70.1129C128.25 70.1171 128.293 70.1303 128.332 70.1517C128.371 70.1731 128.405 70.2023 128.432 70.2373C128.46 70.2724 128.479 70.3127 128.49 70.3557C128.511 70.4481 128.497 70.545 128.451 70.6278C128.405 70.7107 128.331 70.7739 128.241 70.8055C127.719 70.9436 127.17 70.9482 126.645 70.8189C126.12 70.6895 125.636 70.4303 125.238 70.065C125.19 70.0164 125.156 69.9552 125.14 69.8883C125.125 69.8215 125.129 69.7516 125.151 69.6867C125.173 69.6219 125.214 69.5646 125.267 69.5213C125.32 69.4781 125.384 69.4507 125.453 69.4422Z" fill="#263238"/>
<path d="M118.622 75.1304C118.582 75.1474 118.538 75.1561 118.494 75.1561C118.45 75.1561 118.407 75.1474 118.366 75.1304C118.282 75.0937 118.214 75.0258 118.178 74.9408C118.142 74.8558 118.14 74.7602 118.173 74.6737C118.35 74.1356 118.649 73.6455 119.047 73.2412C119.444 72.8369 119.928 72.5292 120.463 72.3417C120.506 72.3294 120.552 72.3264 120.596 72.3329C120.641 72.3394 120.683 72.3553 120.721 72.3795C120.759 72.4037 120.792 72.4357 120.816 72.4733C120.841 72.5109 120.857 72.5533 120.865 72.5977C120.886 72.6903 120.87 72.7875 120.821 72.8688C120.772 72.9501 120.693 73.0092 120.602 73.0337C120.181 73.19 119.802 73.4392 119.492 73.7627C119.181 74.0863 118.948 74.4757 118.809 74.9021C118.796 74.951 118.772 74.9966 118.74 75.0359C118.708 75.0752 118.668 75.1074 118.622 75.1304Z" fill="#263238"/>
<path d="M127.529 73.2897L126.096 73.4558C126.096 73.4558 127.134 74.2378 127.529 73.2897Z" fill="#263238"/>
<path d="M146.067 93.5999C150.911 94.3542 152.884 95.8351 156.863 105.62C155.056 109.267 146.974 118.505 146.974 118.505C146.974 118.505 139.978 100.727 146.067 93.5999Z" fill="#867DFD"/>
<path d="M151.077 283.028C153.97 278.412 154.101 277.139 155.984 274.724C157.589 272.648 157.596 272.807 159.568 271.022C160.876 269.838 159.796 268.143 158.371 267.423C157.257 266.87 156.046 266.379 154.703 265.638L149.569 270.295C150.461 272.946 149.963 278.461 148.012 282.121C146.621 284.73 149.922 284.869 151.077 283.028Z" fill="#656F74"/>
<path d="M116.097 135.923C116.097 135.923 115.405 173.228 114.554 198.68C114.393 203.782 115.501 208.844 117.778 213.413C126.774 231.474 149.195 270.731 149.195 270.731C150.095 271.52 154.385 266.897 154.731 265.624C154.731 265.624 142.538 216.015 131.729 204.901C146.095 165.146 142.192 135.923 142.192 135.923H116.097Z" fill="#362E5A"/>
<g opacity="0.2">
<path opacity="0.2" d="M142.289 137.016L128.193 138.012C128.193 138.012 130.49 178.986 132.732 201.96C144.344 168.156 142.801 142.552 142.289 137.016Z" fill="black"/>
<path opacity="0.2" d="M133.21 206.68C134.469 218.444 135.77 233.792 136.359 247.951C140.981 256.255 145.126 263.569 147.389 267.548C148.489 262.614 149.666 256.725 150.607 250.483C146.441 236.048 139.694 215.281 133.21 206.68Z" fill="black"/>
</g>
<path d="M146.441 268.794C146.946 269.43 147.825 270.565 148.475 271.437C148.582 271.566 148.732 271.652 148.898 271.679C149.063 271.705 149.233 271.671 149.375 271.582C151.553 269.871 153.569 267.962 155.395 265.88C155.484 265.779 155.539 265.653 155.552 265.519C155.566 265.385 155.538 265.25 155.472 265.133L154.005 262.524C153.957 262.442 153.892 262.371 153.814 262.316C153.736 262.261 153.647 262.225 153.554 262.208C153.46 262.192 153.364 262.196 153.272 262.22C153.18 262.245 153.095 262.29 153.022 262.351L146.524 267.887C146.459 267.941 146.405 268.007 146.366 268.082C146.327 268.157 146.302 268.239 146.295 268.323C146.287 268.407 146.296 268.492 146.321 268.573C146.346 268.654 146.387 268.729 146.441 268.794Z" fill="#362E5A"/>
<path d="M132.449 288.031C137.985 288.031 140.102 287.941 143.23 287.837C145.901 287.747 146.51 288.08 148.655 288.031C150.448 287.99 150.538 286.28 150.164 284.308C149.977 283.319 149.659 282.108 149.424 280.509H141.009C139.666 282.689 134.739 284.329 131.577 284.744C128.567 285.146 130.241 288.031 132.449 288.031Z" fill="#656F74"/>
<path d="M123.916 135.923C123.916 135.923 132.615 183.83 135.805 205.524C139.154 228.36 143.278 265.34 141.009 280.488C142.24 281.243 146.794 281.291 149.423 280.488C149.423 280.488 161.014 230.754 151.617 206.534C157.935 153.167 148.586 150.385 146.005 135.902L123.916 135.923Z" fill="#362E5A"/>
<path d="M140.663 277.354C140.543 278.404 140.352 279.444 140.088 280.468C140.061 280.549 140.052 280.635 140.062 280.72C140.072 280.804 140.1 280.886 140.145 280.959C140.19 281.031 140.25 281.093 140.322 281.14C140.393 281.187 140.474 281.217 140.559 281.229C143.597 281.727 148.116 281.007 149.555 280.758C149.693 280.736 149.821 280.673 149.922 280.576C150.024 280.48 150.094 280.355 150.123 280.219L150.849 277.312C150.876 277.222 150.88 277.128 150.863 277.036C150.845 276.944 150.806 276.858 150.749 276.784C150.691 276.71 150.617 276.651 150.532 276.612C150.447 276.573 150.354 276.554 150.261 276.558L141.355 276.731C141.183 276.73 141.016 276.793 140.888 276.909C140.761 277.024 140.68 277.182 140.663 277.354Z" fill="#362E5A"/>
<path d="M132.061 60.0518C137.95 68.5772 121.681 65.5117 118.138 73.525C118.152 65.5117 118.816 59.3252 132.061 60.0518Z" fill="#263238"/>
<path d="M146.012 135.923C137.424 137.736 119.522 141.902 116.104 135.923C118.332 134.393 141.043 134.67 146.012 135.923Z" fill="#746AFF"/>
<path d="M125.487 140.614C124.92 140.614 124.387 140.614 123.903 140.573C118.311 140.282 116.713 138.566 116.65 138.497C116.632 138.48 116.618 138.46 116.608 138.437C116.598 138.414 116.593 138.39 116.593 138.365C116.593 138.341 116.598 138.316 116.608 138.294C116.618 138.271 116.632 138.251 116.65 138.234C116.685 138.199 116.733 138.18 116.782 138.18C116.831 138.18 116.878 138.199 116.913 138.234C116.913 138.234 118.505 139.902 123.909 140.192C129.314 140.483 141.625 138.96 145.361 137.217C145.408 137.197 145.46 137.195 145.507 137.212C145.554 137.228 145.594 137.262 145.617 137.307C145.637 137.354 145.637 137.406 145.619 137.454C145.601 137.501 145.566 137.54 145.521 137.563C142.012 139.217 131.556 140.614 125.487 140.614Z" fill="white"/>
<path d="M123.439 154.136C123.253 154.13 123.073 154.064 122.927 153.949C120.159 151.998 122.781 142.455 124.255 139.853C124.276 139.818 124.307 139.79 124.344 139.774C124.381 139.757 124.423 139.753 124.463 139.761C124.503 139.77 124.539 139.791 124.566 139.821C124.594 139.851 124.611 139.889 124.615 139.929C124.719 141.265 125.605 152.994 123.771 154.046C123.67 154.105 123.556 154.137 123.439 154.136ZM124.283 140.635C122.83 143.812 120.823 152.032 123.141 153.638C123.377 153.804 123.508 153.762 123.584 153.721C124.761 153.043 124.657 145.77 124.283 140.635Z" fill="white"/>
<path d="M126.366 151.873C126.221 151.869 126.078 151.838 125.944 151.783C122.747 150.524 123.439 142.67 124.242 139.895C124.254 139.857 124.277 139.824 124.307 139.8C124.338 139.775 124.375 139.76 124.415 139.756C124.454 139.757 124.493 139.769 124.526 139.791C124.559 139.813 124.586 139.844 124.601 139.881C124.982 140.947 128.276 150.302 126.857 151.679C126.726 151.806 126.549 151.876 126.366 151.873ZM124.449 140.594C123.709 143.811 123.425 150.385 126.082 151.43C126.428 151.569 126.553 151.43 126.594 151.43C127.494 150.538 125.875 144.676 124.449 140.594Z" fill="white"/>
<path d="M121.37 147.237C121.325 147.237 121.281 147.221 121.246 147.192C121.212 147.163 121.189 147.122 121.183 147.078C120.851 144.953 122.899 140.241 124.366 139.77C124.389 139.762 124.414 139.758 124.438 139.759C124.463 139.76 124.487 139.767 124.509 139.778C124.531 139.789 124.551 139.804 124.567 139.823C124.583 139.842 124.594 139.864 124.601 139.888C124.617 139.936 124.613 139.987 124.591 140.033C124.569 140.078 124.531 140.113 124.484 140.13C123.197 140.538 121.259 145.112 121.556 147.05C121.563 147.099 121.549 147.149 121.52 147.189C121.49 147.229 121.446 147.256 121.397 147.264L121.37 147.237Z" fill="white"/>
</svg>
