<svg width="91" height="96" viewBox="0 0 91 96" fill="none" xmlns="http://www.w3.org/2000/svg">
<path fill-rule="evenodd" clip-rule="evenodd" d="M63.3741 68.0264L68.5466 59.0659L61.1349 49.6169C61.1349 49.6169 69.0926 35.8339 71.0837 32.3862C73.0738 28.9386 76.1362 17.2685 69.484 9.28774C59.247 7.51736 50.6714 16.0049 48.6804 19.4533C46.6893 22.9 38.7328 36.6829 38.7328 36.6829L26.8429 34.9889L21.6704 43.9494L40.8026 54.9955L46.0399 45.9243C44.3278 43.9791 43.957 41.0836 45.3245 38.7144C47.0392 35.7444 50.8369 34.7265 53.8069 36.4421C56.7769 38.1568 57.7947 41.9545 56.0795 44.9242C54.7117 47.293 52.0201 48.4204 49.4787 47.9092L44.2404 56.9813L63.3726 68.0275L63.3741 68.0264ZM32.79 85.5482L36.3017 87.5759L37.6201 85.2935L34.1076 83.2648L32.79 85.5482ZM39.819 73.3728L43.3307 75.4005L38.4305 83.8883L34.9188 81.8605L39.819 73.3728ZM20.7301 78.5865L24.2427 80.6152L25.5603 78.3319L22.0486 76.3041L20.7301 78.5865ZM27.7604 66.4115L31.272 68.4392L26.3709 76.9279L22.8593 74.9001L27.7604 66.4115ZM24.9011 85.2885L28.4127 87.3163L29.7303 85.0329L26.2186 83.0052L24.9011 85.2885ZM33.7899 69.8928L37.3016 71.9206L30.5419 83.6283L27.0302 81.6005L33.7899 69.8928ZM31.7665 54.9177C38.2707 58.6729 44.7767 62.4292 51.2812 66.1847L45.3486 71.4853C40.2811 68.5594 35.2105 65.633 30.1418 62.7058L31.7664 54.9185L31.7665 54.9177Z" fill="#F4F2FF"/>
</svg>
