<svg width="216" height="216" viewBox="0 0 216 216" fill="none" xmlns="http://www.w3.org/2000/svg">
<path opacity="0.5" d="M108.001 191.483C92.7551 191.481 77.8008 187.304 64.7601 179.405C51.7195 171.507 41.0905 160.188 34.0259 146.678C26.9613 133.167 23.7308 117.98 24.6849 102.764C25.639 87.5478 30.7412 72.8833 39.4381 60.3611C40.2057 59.2592 41.3795 58.5073 42.7014 58.2709C44.0233 58.0345 45.3849 58.3329 46.4868 59.1005C47.5887 59.868 48.3405 61.0419 48.5769 62.3638C48.8133 63.6857 48.5149 65.0473 47.7474 66.1492C37.3609 81.1057 32.9103 99.3914 35.2614 117.448C37.6126 135.505 46.5973 152.041 60.4674 163.839C74.3375 175.637 92.1009 181.854 110.301 181.278C128.501 180.702 145.836 173.376 158.933 160.725C172.03 148.075 179.952 131.004 181.157 112.834C182.363 94.665 176.766 76.6971 165.455 62.4267C154.144 48.1564 137.929 38.6043 119.965 35.6293C102 32.6542 83.5712 36.469 68.264 46.3312C67.1353 47.0589 65.7637 47.3084 64.451 47.0249C63.1383 46.7413 61.992 45.9479 61.2642 44.8192C60.5365 43.6905 60.287 42.3189 60.5705 41.0062C60.8541 39.6935 61.6475 38.5472 62.7762 37.8194C73.6853 30.7889 86.0832 26.3985 98.9856 24.9968C111.888 23.5951 124.939 25.2207 137.104 29.7446C149.268 34.2684 160.21 41.5659 169.061 51.0576C177.913 60.5494 184.429 71.9739 188.093 84.4242C191.757 96.8745 192.469 110.008 190.17 122.781C187.872 135.554 182.627 147.615 174.853 158.007C167.079 168.399 156.988 176.836 145.384 182.647C133.779 188.458 120.98 191.483 108.001 191.483Z" fill="#B0ACC5"/>
<path d="M54.7385 55.5081C53.7208 55.5082 52.7268 55.2017 51.886 54.6284C51.0452 54.0551 50.3966 53.2418 50.025 52.2944C49.6533 51.3471 49.5758 50.3098 49.8025 49.3177C50.0293 48.3256 50.5497 47.4249 51.296 46.7331L52.2308 45.8826C52.723 45.4249 53.3013 45.0698 53.9322 44.8379C54.563 44.6061 55.2337 44.5022 55.9051 44.5323C56.5765 44.5624 57.2352 44.7259 57.8427 45.0132C58.4503 45.3005 58.9946 45.7059 59.4438 46.2058C59.893 46.7057 60.2383 47.29 60.4593 47.9247C60.6803 48.5594 60.7728 49.2317 60.7313 49.9025C60.6898 50.5733 60.5151 51.2291 60.2174 51.8317C59.9198 52.4343 59.5052 52.9715 58.9977 53.4122L58.1776 54.1615C57.2417 55.0274 56.0135 55.5083 54.7385 55.5081Z" fill="url(#paint0_linear_0_2413)"/>
<path d="M134.644 88.9804C134.275 88.6082 133.836 88.3129 133.352 88.1113C132.868 87.9097 132.349 87.8059 131.825 87.8059C131.301 87.8059 130.782 87.9097 130.298 88.1113C129.814 88.3129 129.375 88.6082 129.006 88.9804L99.4253 118.601L86.9974 106.133C86.6141 105.763 86.1617 105.472 85.6659 105.277C85.1702 105.081 84.6408 104.985 84.108 104.995C83.5753 105.004 83.0495 105.118 82.5608 105.33C82.0721 105.543 81.6301 105.849 81.2599 106.233C80.8896 106.616 80.5985 107.068 80.4032 107.564C80.2078 108.06 80.112 108.589 80.1212 109.122C80.1304 109.655 80.2445 110.18 80.4569 110.669C80.6693 111.158 80.9759 111.6 81.3591 111.97L96.6062 127.217C96.9753 127.589 97.4145 127.885 97.8983 128.086C98.3822 128.288 98.9011 128.392 99.4253 128.392C99.9495 128.392 100.468 128.288 100.952 128.086C101.436 127.885 101.875 127.589 102.244 127.217L134.644 94.8172C135.047 94.4454 135.369 93.9941 135.589 93.4918C135.809 92.9895 135.923 92.4471 135.923 91.8988C135.923 91.3504 135.809 90.808 135.589 90.3058C135.369 89.8035 135.047 89.3522 134.644 88.9804Z" fill="url(#paint1_linear_0_2413)"/>
<defs>
<linearGradient id="paint0_linear_0_2413" x1="50.0877" y1="40.295" x2="61.4909" y2="40.7988" gradientUnits="userSpaceOnUse">
<stop stop-color="#77DEC3"/>
<stop offset="0.948069" stop-color="#8893ED"/>
</linearGradient>
<linearGradient id="paint1_linear_0_2413" x1="82.2002" y1="72.1634" x2="139.608" y2="75.6241" gradientUnits="userSpaceOnUse">
<stop stop-color="#77DEC3"/>
<stop offset="0.948069" stop-color="#8893ED"/>
</linearGradient>
</defs>
</svg>
