<svg width="67" height="67" viewBox="0 0 67 67" fill="none" xmlns="http://www.w3.org/2000/svg">
<path d="M21.3501 42.2184C22.5065 48.7672 25.6555 54.7633 30.322 59.4136L31.5063 49.9439L29.4577 45.8466H37.6522L35.6036 49.9439L36.7868 59.4136C41.4534 54.7631 44.6029 48.767 45.7592 42.2184C57.8155 43.4428 66.3333 47.7343 66.3333 62.2364V66.3336H0.777214V62.2364C0.777214 47.7347 9.29467 43.4432 21.3498 42.2184H21.3501Z" fill="#F4F2FF"/>
<path d="M33.5556 0.777527C42.6074 0.777527 49.9446 8.11468 49.9446 17.1665C49.9446 31.6808 42.6074 41.75 33.5556 41.75C24.5037 41.75 17.1666 31.6808 17.1666 17.1665C17.1666 8.11468 24.5037 0.777527 33.5556 0.777527Z" fill="#F4F2FF"/>
</svg>
