<svg width="360" height="337" viewBox="0 0 360 337" fill="none" xmlns="http://www.w3.org/2000/svg">
<path opacity="0.5" d="M186.508 113.485C167.174 102.184 151.191 112.746 148.363 137.135C147.871 141.354 151.068 146.928 154.972 149.207L218.044 186.098C221.948 188.377 225.144 186.53 224.653 181.726C221.825 154.103 205.811 124.787 186.508 113.485Z" fill="url(#paint0_linear_603_29249)"/>
<path opacity="0.5" d="M208.055 81.829C208.055 98.6735 198.342 106.618 186.354 99.5973C174.367 92.5762 164.654 73.2682 164.654 56.4237C164.654 39.5793 174.367 31.6344 186.354 38.6554C198.342 45.6765 208.055 64.9846 208.055 81.829Z" fill="url(#paint1_linear_603_29249)"/>
<path opacity="0.07" d="M198.926 103.385C179.592 92.0835 163.609 102.646 160.781 127.035C160.289 131.254 163.486 136.828 167.39 139.106L230.462 175.998C234.366 178.277 237.562 176.429 237.071 171.625C234.243 144.003 218.259 114.687 198.926 103.385Z" fill="url(#paint2_linear_603_29249)"/>
<path opacity="0.07" d="M220.473 71.7284C220.473 88.5729 210.76 96.5178 198.772 89.4967C186.785 82.4756 177.072 63.1676 177.072 46.3232C177.072 29.4787 186.785 21.5338 198.772 28.5549C210.76 35.576 220.473 54.884 220.473 71.7284Z" fill="url(#paint3_linear_603_29249)"/>
<path opacity="0.2" d="M262.244 198.509L207.625 166.914V195.429L262.244 227.024V198.509Z" fill="url(#paint4_linear_603_29249)"/>
<path d="M218.721 182.896C218.721 185.236 217.337 186.345 215.616 185.359C213.895 184.374 212.512 181.664 212.512 179.324C212.512 176.983 213.895 175.875 215.616 176.86C217.337 177.846 218.721 180.555 218.721 182.896Z" fill="#89D0F0"/>
<path opacity="0.15" d="M221.61 181.88L238.023 191.395V194.813L221.579 185.298L221.61 181.88Z" fill="white"/>
<path opacity="0.15" d="M221.61 188.747L256.589 208.979V212.458L221.61 192.226V188.747Z" fill="white"/>
<path opacity="0.2" d="M151.283 165.559L96.6636 133.995V162.51L151.283 194.105V165.559Z" fill="url(#paint5_linear_603_29249)"/>
<path d="M107.76 149.946C107.76 152.286 106.377 153.395 104.655 152.409C102.934 151.424 101.551 148.714 101.551 146.374C101.551 144.033 102.934 142.925 104.655 143.91C106.377 144.896 107.76 147.606 107.76 149.946Z" fill="#68A4FF"/>
<path opacity="0.15" d="M110.557 149.084L120.454 154.811V158.291L110.557 152.563V149.084Z" fill="white"/>
<path opacity="0.15" d="M110.649 155.951L145.628 176.183V179.662L110.649 159.431V155.951Z" fill="white"/>
<path opacity="0.3" d="M186.478 197.092L289.969 256.956L290 311L195.637 256.433L186.508 259.42L186.478 197.092Z" fill="url(#paint6_linear_603_29249)"/>
<path opacity="0.8" d="M207.501 227.363C207.501 231.828 204.889 233.891 201.631 232.013C198.372 230.134 195.76 224.992 195.76 220.557C195.76 216.092 198.372 214.029 201.631 215.907C204.858 217.786 207.501 222.928 207.501 227.363Z" fill="#AFA5F9"/>
<path opacity="0.15" d="M213.096 225.638L235.78 238.757V243.499L213.096 230.381V225.638Z" fill="white"/>
<path opacity="0.15" d="M213.096 235.154L280.84 274.324V279.066L213.096 239.896V235.154Z" fill="white"/>
<path opacity="0.15" d="M213.096 244.669L266.056 275.309V280.052L213.096 249.411V244.669Z" fill="white"/>
<path opacity="0.3" d="M172.492 212.612L69 152.779L69.0307 206.823L163.394 261.39L172.523 274.94L172.492 212.612Z" fill="url(#paint7_linear_603_29249)"/>
<path opacity="0.8" d="M151.468 218.556C151.468 223.021 154.111 228.133 157.339 230.011C160.597 231.889 163.209 229.795 163.209 225.33C163.209 220.865 160.566 215.753 157.339 213.875C154.111 212.027 151.468 214.121 151.468 218.556Z" fill="#AFA5F9"/>
<path opacity="0.15" d="M145.873 210.395L123.189 197.277V202.019L145.873 215.137V210.395Z" fill="white"/>
<path opacity="0.15" d="M145.904 219.88L78.1597 180.709V185.452L145.874 224.622L145.904 219.88Z" fill="white"/>
<path opacity="0.15" d="M145.904 229.395L92.9443 198.755V203.497L145.904 234.137V229.395Z" fill="white"/>
<path opacity="0.2" d="M112.093 246.27C113.937 247.317 115.413 249.904 115.413 252.06V261.452L121.622 265.024C123.466 266.071 124.941 268.658 124.941 270.783C124.941 272.907 123.466 273.77 121.622 272.723L115.413 269.12V278.512C115.413 280.637 113.937 281.499 112.093 280.452C110.249 279.405 108.774 276.818 108.774 274.694V265.301L102.565 261.729C100.72 260.682 99.2451 258.095 99.2451 255.971C99.2451 253.846 100.72 252.984 102.565 254.031L108.774 257.603V248.21C108.743 246.055 110.249 245.193 112.093 246.27Z" fill="url(#paint8_linear_603_29249)"/>
<path opacity="0.2" d="M245.646 125.957L254.191 142.771C255.359 145.08 255.175 147.39 253.761 147.944C252.347 148.499 250.257 147.051 249.089 144.742L248.997 144.526V163.187C248.997 165.312 247.521 166.174 245.677 165.127C243.833 164.05 242.357 161.494 242.357 159.369V140.708L242.265 140.8C241.097 141.755 238.976 140.769 237.593 138.583C236.179 136.396 235.995 133.871 237.163 132.917L245.646 125.957Z" fill="url(#paint9_linear_603_29249)"/>
<path opacity="0.2" d="M172.492 156.016L159.336 148.409V143.975L172.492 151.581C173.568 152.197 175.135 153.46 176.457 155.4C177.902 157.463 178.916 160.08 178.916 162.913C178.916 166.054 178.117 167.841 176.611 168.333C175.197 168.795 173.506 167.995 172.492 167.409L167.082 164.268L167.051 164.238C166.59 163.96 165.853 163.683 165.269 163.868C164.777 164.022 164.254 164.484 164.254 166.239C164.254 167.995 164.808 169.042 165.238 169.688C165.791 170.489 166.529 171.043 166.99 171.289L167.051 171.32L183.588 180.897V185.332L167.144 175.816C166.006 175.231 164.377 173.969 162.963 171.998C161.427 169.811 160.381 167.071 160.381 164.022C160.381 160.973 161.427 159.434 162.933 159.003C164.347 158.602 165.976 159.187 167.113 159.865L172.461 162.975C173.23 163.437 173.814 163.622 174.213 163.499C174.521 163.406 175.074 162.975 175.074 160.727C175.074 159.249 174.613 158.294 174.152 157.678C173.629 156.847 172.953 156.262 172.492 156.016Z" fill="white"/>
<path d="M161.765 147.455C161.765 151.427 159.429 153.306 156.57 151.674C153.712 150.011 151.375 145.453 151.375 141.45C151.375 137.477 153.712 135.599 156.57 137.231C159.429 138.894 161.765 143.482 161.765 147.455Z" fill="#68A4FF"/>
<path d="M190.35 186.871C190.35 190.844 188.014 192.722 185.156 191.09C182.297 189.427 179.961 184.87 179.961 180.867C179.961 176.894 182.297 175.016 185.156 176.648C188.014 178.311 190.35 182.899 190.35 186.871Z" fill="#89D0F0"/>
<defs>
<linearGradient id="paint0_linear_603_29249" x1="266.263" y1="95.0556" x2="187.646" y2="152.298" gradientUnits="userSpaceOnUse">
<stop stop-color="white"/>
<stop offset="1" stop-color="white" stop-opacity="0"/>
</linearGradient>
<linearGradient id="paint1_linear_603_29249" x1="226.25" y1="39.9752" x2="147.633" y2="97.2179" gradientUnits="userSpaceOnUse">
<stop stop-color="white"/>
<stop offset="1" stop-color="white" stop-opacity="0"/>
</linearGradient>
<linearGradient id="paint2_linear_603_29249" x1="278.687" y1="84.9517" x2="200.069" y2="142.194" gradientUnits="userSpaceOnUse">
<stop stop-color="white"/>
<stop offset="1" stop-color="white" stop-opacity="0"/>
</linearGradient>
<linearGradient id="paint3_linear_603_29249" x1="238.673" y1="29.8708" x2="160.056" y2="87.1134" gradientUnits="userSpaceOnUse">
<stop stop-color="white"/>
<stop offset="1" stop-color="white" stop-opacity="0"/>
</linearGradient>
<linearGradient id="paint4_linear_603_29249" x1="241.09" y1="186.279" x2="228.735" y2="207.645" gradientUnits="userSpaceOnUse">
<stop stop-color="white"/>
<stop offset="1" stop-color="white" stop-opacity="0"/>
</linearGradient>
<linearGradient id="paint5_linear_603_29249" x1="130.129" y1="153.333" x2="117.774" y2="174.699" gradientUnits="userSpaceOnUse">
<stop stop-color="white"/>
<stop offset="1" stop-color="white" stop-opacity="0"/>
</linearGradient>
<linearGradient id="paint6_linear_603_29249" x1="230.93" y1="198.851" x2="244.36" y2="307.579" gradientUnits="userSpaceOnUse">
<stop stop-color="white"/>
<stop offset="1" stop-color="white" stop-opacity="0"/>
</linearGradient>
<linearGradient id="paint7_linear_603_29249" x1="149.925" y1="190.97" x2="96.406" y2="232.797" gradientUnits="userSpaceOnUse">
<stop stop-color="white"/>
<stop offset="1" stop-color="white" stop-opacity="0"/>
</linearGradient>
<linearGradient id="paint8_linear_603_29249" x1="118.503" y1="258.266" x2="102.387" y2="270.962" gradientUnits="userSpaceOnUse">
<stop stop-color="white"/>
<stop offset="1" stop-color="white" stop-opacity="0"/>
</linearGradient>
<linearGradient id="paint9_linear_603_29249" x1="251.72" y1="142.919" x2="236.116" y2="151.601" gradientUnits="userSpaceOnUse">
<stop stop-color="white"/>
<stop offset="1" stop-color="white" stop-opacity="0"/>
</linearGradient>
</defs>
</svg>
