<svg width="360" height="337" viewBox="0 0 360 337" fill="none" xmlns="http://www.w3.org/2000/svg">
<path d="M188.142 166.776C192.945 172.828 198.278 179.47 202.019 184.115C206.18 171.505 200.623 153.885 194.425 140.712C192.945 148.903 190.878 157.572 188.142 166.776Z" fill="#AFA5F9"/>
<path d="M158.879 120.109C152.709 126.076 147.18 137.222 151.34 154.645C155.082 154.335 160.387 153.913 165.19 153.463C162.453 141.078 160.387 130.016 158.879 120.109Z" fill="#AFA5F9"/>
<path opacity="0.2" d="M172.17 182.173C137.659 48.5871 166.055 37.2439 176.777 32.6841C187.5 49.7411 215.868 94.1007 181.329 187.492L172.17 182.173Z" fill="url(#paint0_linear_603_21150)"/>
<path opacity="0.1" d="M182.334 174.488C147.822 40.9312 176.191 29.5598 186.941 25C197.663 42.0571 226.032 86.4167 191.492 179.808L182.334 174.488Z" fill="url(#paint1_linear_603_21150)"/>
<path opacity="0.15" d="M181.329 187.492C215.868 94.1007 187.499 49.7411 176.777 32.6841V184.847L181.329 187.492Z" fill="url(#paint2_linear_603_21150)"/>
<path opacity="0.1" d="M187.053 79.7177C187.053 87.8522 182.306 91.6802 176.442 88.2744C170.579 84.8686 165.832 75.4957 165.832 67.3612C165.832 59.2267 170.579 55.3987 176.442 58.8045C182.306 62.2103 187.053 71.5832 187.053 79.7177Z" fill="white"/>
<path opacity="0.1" d="M184.959 217.722C182.53 213.725 181.357 208.659 180.324 204.212C179.123 199.089 178.118 194.726 175.605 193.628C172.729 192.362 171.445 195.571 169.63 200.018C168.569 202.635 167.312 205.732 165.469 208.574C163.487 206.463 161.393 204.718 159.187 203.452C149.945 198.076 142.238 202.72 140.423 213.81C139.167 212.853 137.91 211.98 136.626 211.22C121.799 202.607 109.792 212.374 109.792 233.09C109.792 253.778 121.799 277.534 136.598 286.147C150.978 294.507 162.733 285.528 163.403 266.079C166.111 271.145 169.713 275.395 173.706 277.703C174.739 278.294 175.745 278.745 176.694 279.026C182.446 291.777 191.018 302.754 200.595 308.327C217.907 318.404 231.952 307.032 231.98 282.939C231.98 258.845 217.935 231.12 200.623 221.044C194.899 217.722 189.566 216.709 184.959 217.722Z" fill="url(#paint3_linear_603_21150)"/>
<path opacity="0.3" d="M212.853 125.569L288.438 169.563L288.466 209.278L219.554 169.169L212.881 171.364L212.853 125.569Z" fill="url(#paint4_linear_603_21150)"/>
<path d="M266.463 176.543V165.763L295 182.37V193.15L266.463 176.543Z" fill="#7D73FB"/>
<path opacity="0.1" d="M232.287 146.539L248.845 156.165V159.655L232.287 150.029V146.539Z" fill="white"/>
<path opacity="0.1" d="M232.315 153.519L262.192 170.914V174.404L232.315 157.009V153.519Z" fill="white"/>
<path opacity="0.15" d="M232.315 160.5L270.987 183.017V186.507L232.315 163.99V160.5Z" fill="white"/>
<path d="M228.21 147.805C228.21 151.07 226.284 152.618 223.91 151.239C221.537 149.86 219.61 146.088 219.61 142.823C219.61 139.558 221.537 138.01 223.91 139.389C226.312 140.768 228.21 144.54 228.21 147.805Z" fill="#68A4FF"/>
<path opacity="0.3" d="M147.655 69.4721L72.0693 25.5066L72.0973 65.2219L141.009 105.303L147.683 115.267L147.655 69.4721Z" fill="url(#paint5_linear_603_21150)"/>
<path d="M64 40.9874V30.2072L92.5365 46.8139V57.5941L64 40.9874Z" fill="#7D73FB"/>
<path opacity="0.15" d="M128.221 67.8396L111.663 58.2134V61.7036L128.221 71.3299V67.8396Z" fill="white"/>
<path opacity="0.15" d="M128.221 74.8202L96.3062 56.2432V59.7334L128.221 78.3104V74.8202Z" fill="white"/>
<path opacity="0.15" d="M128.221 81.8005L89.5488 59.283V62.7732L128.221 85.2908V81.8005Z" fill="white"/>
<path d="M132.297 73.835C132.297 77.1001 134.224 80.8718 136.597 82.251C138.971 83.6302 140.897 82.0821 140.897 78.817C140.897 75.552 138.971 71.7803 136.597 70.4011C134.224 69.05 132.297 70.57 132.297 73.835Z" fill="#68A4FF"/>
<path opacity="0.2" d="M137.603 111.862L92.4526 85.6005V109.3L137.603 135.561V111.862Z" fill="url(#paint6_linear_603_21150)"/>
<path opacity="0.15" d="M104.012 98.0132L119.481 107.02V109.863L104.012 100.856V98.0132Z" fill="white"/>
<path opacity="0.15" d="M104.012 103.727L132.94 120.559V123.43L104.012 106.598V103.727Z" fill="white"/>
<path d="M101.639 98.8576C101.639 100.8 100.494 101.729 99.0703 100.912C97.6463 100.096 96.5015 97.8443 96.5015 95.874C96.5015 93.9319 97.6463 93.003 99.0703 93.8193C100.466 94.6637 101.639 96.9155 101.639 98.8576Z" fill="#89D0F0"/>
<path opacity="0.2" d="M271.685 129.763L226.535 103.502V127.202L271.685 153.491V129.763Z" fill="url(#paint7_linear_603_21150)"/>
<path opacity="0.15" d="M238.095 115.943L253.564 124.95V127.793L238.095 118.786V115.943Z" fill="white"/>
<path opacity="0.15" d="M238.123 121.657L267.05 138.488V141.359L238.123 124.528V121.657Z" fill="white"/>
<path d="M235.721 116.787C235.721 118.729 234.576 119.658 233.152 118.842C231.728 118.026 230.583 115.774 230.583 113.804C230.583 111.862 231.728 110.933 233.152 111.749C234.576 112.593 235.721 114.845 235.721 116.787Z" fill="#89D0F0"/>
<defs>
<linearGradient id="paint0_linear_603_21150" x1="217.012" y1="37.4203" x2="129.167" y2="188.397" gradientUnits="userSpaceOnUse">
<stop stop-color="white"/>
<stop offset="1" stop-color="white" stop-opacity="0"/>
</linearGradient>
<linearGradient id="paint1_linear_603_21150" x1="227.173" y1="29.7383" x2="139.328" y2="180.715" gradientUnits="userSpaceOnUse">
<stop stop-color="white"/>
<stop offset="1" stop-color="white" stop-opacity="0"/>
</linearGradient>
<linearGradient id="paint2_linear_603_21150" x1="200.826" y1="70.4748" x2="132.997" y2="191.884" gradientUnits="userSpaceOnUse">
<stop stop-color="white" stop-opacity="0"/>
<stop offset="1" stop-color="white"/>
</linearGradient>
<linearGradient id="paint3_linear_603_21150" x1="194.523" y1="217.502" x2="156.581" y2="282.712" gradientUnits="userSpaceOnUse">
<stop stop-color="white"/>
<stop offset="1" stop-color="white" stop-opacity="0"/>
</linearGradient>
<linearGradient id="paint4_linear_603_21150" x1="245.329" y1="126.855" x2="255.258" y2="206.735" gradientUnits="userSpaceOnUse">
<stop stop-color="white"/>
<stop offset="1" stop-color="white" stop-opacity="0"/>
</linearGradient>
<linearGradient id="paint5_linear_603_21150" x1="131.171" y1="53.5692" x2="91.9036" y2="84.069" gradientUnits="userSpaceOnUse">
<stop stop-color="white"/>
<stop offset="1" stop-color="white" stop-opacity="0"/>
</linearGradient>
<linearGradient id="paint6_linear_603_21150" x1="120.115" y1="101.68" x2="109.81" y2="119.391" gradientUnits="userSpaceOnUse">
<stop stop-color="white"/>
<stop offset="1" stop-color="white" stop-opacity="0"/>
</linearGradient>
<linearGradient id="paint7_linear_603_21150" x1="254.214" y1="119.603" x2="243.909" y2="137.314" gradientUnits="userSpaceOnUse">
<stop stop-color="white"/>
<stop offset="1" stop-color="white" stop-opacity="0"/>
</linearGradient>
</defs>
</svg>
