<svg width="222" height="269" viewBox="0 0 222 269" fill="none" xmlns="http://www.w3.org/2000/svg">
<path opacity="0.3" d="M127.265 106.189L212.184 155.101V199.232L134.769 154.617L127.293 157.064L127.265 106.189Z" fill="url(#paint0_linear_0_2588)"/>
<path d="M144.528 130.915C144.528 134.557 142.36 136.265 139.706 134.728C137.052 133.192 134.883 129.009 134.883 125.367C134.883 121.725 137.052 120.018 139.706 121.554C142.36 123.062 144.528 127.273 144.528 130.915Z" fill="#AFA5F9"/>
<path opacity="0.15" d="M149.094 129.493L167.698 140.22V144.089L149.094 133.362V129.493Z" fill="white"/>
<path opacity="0.15" d="M149.094 137.26L204.651 169.271V173.14L149.094 141.13V137.26Z" fill="white"/>
<path opacity="0.15" d="M149.094 145L192.552 170.039V173.909L149.094 148.869V145Z" fill="white"/>
<path opacity="0.3" d="M65.5728 47.3191L113.397 74.8336V163.182L65.5728 135.667V47.3191Z" fill="url(#paint1_linear_0_2588)"/>
<path opacity="0.15" d="M70.281 99.7588L108.689 121.867V125.737L70.281 103.628V99.7588Z" fill="white"/>
<path opacity="0.15" d="M72.963 108.835L105.978 127.842V131.712L72.963 112.705V108.835Z" fill="white"/>
<path d="M86.9167 124.656L53.6453 105.506V115.38L86.9167 134.529V124.656Z" fill="#867DFD"/>
<path d="M94.9349 82.0322C94.9349 86.3002 92.4524 88.3204 89.3991 86.5563C86.3459 84.7922 83.8634 79.8697 83.8634 75.5732C83.8634 71.3052 86.3459 69.285 89.3991 71.0491C92.4524 72.8702 94.9349 77.7642 94.9349 82.0322Z" fill="#867DFD"/>
<path d="M89.3991 89.9992C84.4626 87.1254 80.3821 89.8285 79.6687 96.0029C79.5546 97.0841 80.3535 98.5068 81.3523 99.0759L97.4458 108.466C98.4446 109.035 99.2435 108.579 99.1294 107.356C98.416 100.328 94.3356 92.873 89.3991 89.9992Z" fill="#867DFD"/>
<path opacity="0.3" d="M98.7585 153.137L146.583 180.652V269L98.7585 241.485V153.137Z" fill="url(#paint2_linear_0_2588)"/>
<path opacity="0.15" d="M103.438 205.577L141.846 227.685V231.555L103.438 209.447V205.577Z" fill="white"/>
<path opacity="0.15" d="M106.12 214.654L139.135 233.661V237.53L106.12 218.523V214.654Z" fill="white"/>
<path d="M158.425 252.525L125.153 233.376V243.25L158.425 262.399V252.525Z" fill="#78AEFF"/>
<path d="M128.092 187.851C128.092 192.119 125.61 194.139 122.556 192.375C119.503 190.582 117.021 185.688 117.021 181.392C117.021 177.124 119.503 175.104 122.556 176.868C125.61 178.66 128.092 183.583 128.092 187.851Z" fill="#78AEFF"/>
<path d="M122.556 195.818C117.62 192.944 113.539 195.647 112.826 201.821C112.712 202.902 113.511 204.325 114.51 204.894L130.603 214.284C131.602 214.853 132.401 214.398 132.287 213.174C131.573 206.146 127.493 198.691 122.556 195.818Z" fill="#78AEFF"/>
<path opacity="0.3" d="M84.9193 145.427L0 96.5151V140.646L77.4432 185.233L84.9479 196.301L84.9193 145.427Z" fill="url(#paint3_linear_0_2588)"/>
<path d="M67.6558 150.264C67.6558 153.906 69.8244 158.088 72.4781 159.625C75.1319 161.161 77.3005 159.454 77.3005 155.812C77.3005 152.17 75.1319 147.987 72.4781 146.451C69.8244 144.914 67.6558 146.622 67.6558 150.264Z" fill="#AFA5F9"/>
<path opacity="0.15" d="M63.0901 143.577L44.4855 132.879V136.748L63.0901 147.475V143.577Z" fill="white"/>
<path opacity="0.15" d="M63.0901 151.345L7.53296 119.335V123.204L63.0901 155.215V151.345Z" fill="white"/>
<path opacity="0.15" d="M63.0902 159.113L19.6318 134.074V137.943L63.0902 162.982V159.113Z" fill="white"/>
<path opacity="0.4" d="M210.586 36.5067C162.42 8.76459 123.042 41.6283 123.042 110.6L110.743 103.515C110.772 25.609 155.314 -12.291 210.586 19.52V36.5067Z" fill="url(#paint4_linear_0_2588)"/>
<path opacity="0.4" d="M170.409 137.915C170.409 107.299 188.386 92.8162 210.558 105.563V88.5766C181.595 71.9029 158.111 90.8244 158.111 130.83L170.409 137.915Z" fill="url(#paint5_linear_0_2588)"/>
<path opacity="0.4" d="M146.44 123.802C146.44 74.9189 175.146 51.8147 210.5 72.1873V55.2006C168.355 30.9298 134.142 58.4728 134.142 116.717L146.44 123.802Z" fill="url(#paint6_linear_0_2588)"/>
<path opacity="0.4" d="M198.887 154.276C205.336 158.003 210.558 153.764 210.558 144.858C210.558 135.952 205.336 125.708 198.887 121.981C192.438 118.254 187.216 122.493 187.216 131.399C187.216 140.333 192.438 150.548 198.887 154.276Z" fill="url(#paint7_linear_0_2588)"/>
<path opacity="0.07" d="M222 28.2553C173.805 0.513127 134.455 33.3769 134.455 102.348L122.157 95.2632C122.186 17.3576 166.728 -20.5424 222 11.2685V28.2553Z" fill="url(#paint8_linear_0_2588)"/>
<path opacity="0.07" d="M181.823 129.663C181.823 99.0475 199.8 84.5647 221.971 97.3119V80.3251C193.009 63.6514 169.525 82.573 169.525 122.579L181.823 129.663Z" fill="url(#paint9_linear_0_2588)"/>
<path opacity="0.07" d="M157.854 115.55C157.854 66.6674 186.56 43.5632 221.914 63.9359V46.9492C179.769 22.6784 145.555 50.2213 145.555 108.466L157.854 115.55Z" fill="url(#paint10_linear_0_2588)"/>
<path opacity="0.07" d="M210.301 146.024C216.75 149.752 221.971 145.512 221.971 136.606C221.971 127.7 216.75 117.457 210.301 113.73C203.852 110.002 198.63 114.242 198.63 123.148C198.63 132.082 203.852 142.297 210.301 146.024Z" fill="url(#paint11_linear_0_2588)"/>
<path opacity="0.2" d="M172.92 190.212C174.632 191.18 176.002 193.57 176.002 195.533V204.212L181.766 207.512C183.478 208.48 184.848 210.87 184.848 212.861C184.848 214.825 183.478 215.621 181.766 214.654L176.002 211.353V220.032C176.002 221.995 174.632 222.792 172.92 221.824C171.208 220.857 169.838 218.467 169.838 216.475V207.797L164.074 204.496C162.362 203.529 160.993 201.139 160.993 199.175C160.993 197.212 162.362 196.415 164.074 197.383L169.838 200.683V192.005C169.838 190.042 171.208 189.245 172.92 190.212Z" fill="url(#paint12_linear_0_2588)"/>
<path opacity="0.2" d="M36.9524 66.269L44.885 81.8046C45.9694 83.9387 45.7982 86.0727 44.4856 86.5848C43.173 87.097 41.2326 85.7597 40.1483 83.6257L40.0627 83.4265V100.669C40.0627 102.633 38.693 103.429 36.9809 102.462C35.2688 101.466 33.8992 99.1044 33.8992 97.1411V79.8983L33.8136 79.9836C32.7293 80.8657 30.7604 79.9552 29.4763 77.935C28.1637 75.9148 27.9925 73.5816 29.0768 72.6995L36.9524 66.269Z" fill="url(#paint13_linear_0_2588)"/>
<defs>
<linearGradient id="paint0_linear_0_2588" x1="163.77" y1="107.626" x2="174.63" y2="196.415" gradientUnits="userSpaceOnUse">
<stop stop-color="white"/>
<stop offset="1" stop-color="white" stop-opacity="0"/>
</linearGradient>
<linearGradient id="paint1_linear_0_2588" x1="118.519" y1="55.0932" x2="76.2494" y2="128.534" gradientUnits="userSpaceOnUse">
<stop stop-color="white"/>
<stop offset="1" stop-color="white" stop-opacity="0"/>
</linearGradient>
<linearGradient id="paint2_linear_0_2588" x1="151.678" y1="160.905" x2="109.409" y2="234.346" gradientUnits="userSpaceOnUse">
<stop stop-color="white"/>
<stop offset="1" stop-color="white" stop-opacity="0"/>
</linearGradient>
<linearGradient id="paint3_linear_0_2588" x1="66.3928" y1="127.728" x2="22.6415" y2="162.065" gradientUnits="userSpaceOnUse">
<stop stop-color="white"/>
<stop offset="1" stop-color="white" stop-opacity="0"/>
</linearGradient>
<linearGradient id="paint4_linear_0_2588" x1="193.619" y1="6.51796" x2="122.9" y2="89.2713" gradientUnits="userSpaceOnUse">
<stop stop-color="white"/>
<stop offset="1" stop-color="white" stop-opacity="0"/>
</linearGradient>
<linearGradient id="paint5_linear_0_2588" x1="237.323" y1="43.8997" x2="166.604" y2="126.653" gradientUnits="userSpaceOnUse">
<stop stop-color="white"/>
<stop offset="1" stop-color="white" stop-opacity="0"/>
</linearGradient>
<linearGradient id="paint6_linear_0_2588" x1="215.924" y1="25.3324" x2="145.206" y2="108.086" gradientUnits="userSpaceOnUse">
<stop stop-color="white"/>
<stop offset="1" stop-color="white" stop-opacity="0"/>
</linearGradient>
<linearGradient id="paint7_linear_0_2588" x1="261.883" y1="64.8454" x2="191.164" y2="147.599" gradientUnits="userSpaceOnUse">
<stop stop-color="white"/>
<stop offset="1" stop-color="white" stop-opacity="0"/>
</linearGradient>
<linearGradient id="paint8_linear_0_2588" x1="205.032" y1="-1.7335" x2="134.313" y2="81.0201" gradientUnits="userSpaceOnUse">
<stop stop-color="white"/>
<stop offset="1" stop-color="white" stop-opacity="0"/>
</linearGradient>
<linearGradient id="paint9_linear_0_2588" x1="248.737" y1="35.6485" x2="178.018" y2="118.402" gradientUnits="userSpaceOnUse">
<stop stop-color="white"/>
<stop offset="1" stop-color="white" stop-opacity="0"/>
</linearGradient>
<linearGradient id="paint10_linear_0_2588" x1="227.338" y1="17.081" x2="156.619" y2="99.8343" gradientUnits="userSpaceOnUse">
<stop stop-color="white"/>
<stop offset="1" stop-color="white" stop-opacity="0"/>
</linearGradient>
<linearGradient id="paint11_linear_0_2588" x1="273.297" y1="56.5936" x2="202.578" y2="139.347" gradientUnits="userSpaceOnUse">
<stop stop-color="white"/>
<stop offset="1" stop-color="white" stop-opacity="0"/>
</linearGradient>
<linearGradient id="paint12_linear_0_2588" x1="178.886" y1="201.315" x2="163.978" y2="213.113" gradientUnits="userSpaceOnUse">
<stop stop-color="white"/>
<stop offset="1" stop-color="white" stop-opacity="0"/>
</linearGradient>
<linearGradient id="paint13_linear_0_2588" x1="42.6061" y1="81.931" x2="28.1528" y2="90.011" gradientUnits="userSpaceOnUse">
<stop stop-color="white"/>
<stop offset="1" stop-color="white" stop-opacity="0"/>
</linearGradient>
</defs>
</svg>
