<svg width="221" height="285" viewBox="0 0 221 285" fill="none" xmlns="http://www.w3.org/2000/svg">
<path opacity="0.5" d="M117.508 87.4856C98.1744 76.1841 82.1911 86.7466 79.3633 111.136C78.8715 115.354 82.0682 120.928 85.9718 123.207L149.044 160.099C152.948 162.377 156.145 160.53 155.653 155.726C152.825 128.103 136.811 98.7871 117.508 87.4856Z" fill="url(#paint0_linear_0_2497)"/>
<path opacity="0.5" d="M139.055 55.829C139.055 72.6735 129.342 80.6184 117.354 73.5973C105.367 66.5762 95.654 47.2682 95.654 30.4237C95.654 13.5793 105.367 5.63436 117.354 12.6554C129.342 19.6765 139.055 38.9846 139.055 55.829Z" fill="url(#paint1_linear_0_2497)"/>
<path opacity="0.07" d="M129.926 77.385C110.592 66.0835 94.6089 76.646 91.7811 101.035C91.2893 105.254 94.4859 110.828 98.3895 113.106L161.462 149.998C165.366 152.277 168.562 150.429 168.071 145.625C165.243 118.003 149.259 88.6865 129.926 77.385Z" fill="url(#paint2_linear_0_2497)"/>
<path opacity="0.07" d="M151.473 45.7284C151.473 62.5729 141.76 70.5178 129.772 63.4967C117.785 56.4756 108.072 37.1676 108.072 20.3232C108.072 3.47869 117.785 -4.46623 129.772 2.55486C141.76 9.57596 151.473 28.884 151.473 45.7284Z" fill="url(#paint3_linear_0_2497)"/>
<path opacity="0.2" d="M193.244 172.509L138.624 140.914V169.429L193.244 201.024V172.509Z" fill="url(#paint4_linear_0_2497)"/>
<path d="M149.721 156.896C149.721 159.236 148.337 160.345 146.616 159.359C144.895 158.374 143.512 155.664 143.512 153.324C143.512 150.983 144.895 149.875 146.616 150.86C148.337 151.846 149.721 154.555 149.721 156.896Z" fill="#78AEFF"/>
<path opacity="0.15" d="M152.61 155.88L169.023 165.395V168.813L152.579 159.298L152.61 155.88Z" fill="white"/>
<path opacity="0.15" d="M152.61 162.747L187.589 182.978V186.458L152.61 166.226V162.747Z" fill="white"/>
<path opacity="0.2" d="M82.2833 139.559L27.6634 107.994V136.51L82.2833 168.105V139.559Z" fill="url(#paint5_linear_0_2497)"/>
<path d="M38.7595 123.946C38.7595 126.286 37.3763 127.395 35.655 126.409C33.9338 125.424 32.5506 122.714 32.5506 120.374C32.5506 118.033 33.9338 116.925 35.655 117.91C37.3763 118.896 38.7595 121.606 38.7595 123.946Z" fill="#867DFD"/>
<path opacity="0.15" d="M41.5566 123.084L51.454 128.811V132.291L41.5566 126.563V123.084Z" fill="white"/>
<path opacity="0.15" d="M41.6488 129.951L76.6277 150.183V153.662L41.6488 133.43V129.951Z" fill="white"/>
<path opacity="0.3" d="M117.477 171.092L220.969 230.956L221 285L126.637 230.433L117.508 233.42L117.477 171.092Z" fill="url(#paint6_linear_0_2497)"/>
<path opacity="0.8" d="M138.501 201.363C138.501 205.828 135.889 207.891 132.631 206.013C129.373 204.134 126.76 198.992 126.76 194.557C126.76 190.092 129.373 188.029 132.631 189.907C135.858 191.786 138.501 196.928 138.501 201.363Z" fill="#AFA5F9"/>
<path opacity="0.15" d="M144.096 199.638L166.78 212.757V217.499L144.096 204.381V199.638Z" fill="white"/>
<path opacity="0.15" d="M144.096 209.154L211.84 248.324V253.066L144.096 213.896V209.154Z" fill="white"/>
<path opacity="0.15" d="M144.096 218.669L197.056 249.309V254.052L144.096 223.412V218.669Z" fill="white"/>
<path opacity="0.3" d="M103.492 186.612L0 126.779L0.0307371 180.823L94.3937 235.39L103.523 248.94L103.492 186.612Z" fill="url(#paint7_linear_0_2497)"/>
<path opacity="0.8" d="M82.4677 192.556C82.4677 197.021 85.111 202.133 88.3384 204.011C91.5966 205.89 94.2092 203.796 94.2092 199.33C94.2092 194.865 91.5658 189.753 88.3384 187.875C85.111 186.027 82.4677 188.121 82.4677 192.556Z" fill="#AFA5F9"/>
<path opacity="0.15" d="M76.8735 184.395L54.1895 171.277V176.019L76.8735 189.137V184.395Z" fill="white"/>
<path opacity="0.15" d="M76.9042 193.88L9.15961 154.709V159.452L76.8735 198.622L76.9042 193.88Z" fill="white"/>
<path opacity="0.15" d="M76.9043 203.395L23.9442 172.755V177.497L76.9043 208.137V203.395Z" fill="white"/>
<path opacity="0.2" d="M43.0934 220.27C44.9376 221.317 46.413 223.904 46.413 226.06V235.452L52.6219 239.024C54.4662 240.071 55.9415 242.658 55.9415 244.783C55.9415 246.907 54.4662 247.77 52.6219 246.723L46.413 243.12V252.512C46.413 254.637 44.9376 255.499 43.0934 254.452C41.2492 253.405 39.7738 250.818 39.7738 248.694V239.301L33.5649 235.729C31.7207 234.682 30.2453 232.095 30.2453 229.971C30.2453 227.846 31.7207 226.984 33.5649 228.031L39.7738 231.603V222.21C39.7431 220.055 41.2492 219.193 43.0934 220.27Z" fill="url(#paint8_linear_0_2497)"/>
<path opacity="0.2" d="M176.646 99.9573L185.191 116.771C186.359 119.081 186.175 121.39 184.761 121.944C183.347 122.499 181.257 121.051 180.089 118.742L179.997 118.526V137.188C179.997 139.312 178.521 140.175 176.677 139.128C174.833 138.05 173.357 135.494 173.357 133.369V114.708L173.265 114.8C172.097 115.755 169.976 114.769 168.593 112.583C167.179 110.397 166.995 107.871 168.163 106.917L176.646 99.9573Z" fill="url(#paint9_linear_0_2497)"/>
<path opacity="0.2" d="M103.492 130.016L90.3365 122.409V117.975L103.492 125.581C104.568 126.197 106.135 127.46 107.457 129.4C108.902 131.463 109.916 134.08 109.916 136.914C109.916 140.055 109.117 141.841 107.611 142.333C106.197 142.795 104.506 141.995 103.492 141.41L98.0823 138.269L98.0516 138.238C97.5905 137.961 96.8528 137.683 96.2688 137.868C95.777 138.022 95.2545 138.484 95.2545 140.239C95.2545 141.995 95.8078 143.042 96.2381 143.688C96.7913 144.489 97.529 145.043 97.9901 145.29L98.0516 145.32L114.588 154.897V159.332L98.1438 149.816C97.0065 149.231 95.3774 147.969 93.9635 145.998C92.4267 143.811 91.3816 141.071 91.3816 138.022C91.3816 134.974 92.4267 133.434 93.9328 133.003C95.3467 132.602 96.9758 133.187 98.113 133.865L103.461 136.975C104.23 137.437 104.814 137.622 105.213 137.499C105.521 137.406 106.074 136.975 106.074 134.727C106.074 133.249 105.613 132.294 105.152 131.679C104.629 130.847 103.953 130.262 103.492 130.016Z" fill="white"/>
<path d="M92.7646 121.455C92.7646 125.427 90.4286 127.306 87.5701 125.674C84.7115 124.011 82.3755 119.453 82.3755 115.45C82.3755 111.477 84.7115 109.599 87.5701 111.231C90.4286 112.894 92.7646 117.482 92.7646 121.455Z" fill="#867DFD"/>
<path d="M121.35 160.872C121.35 164.844 119.014 166.722 116.156 165.09C113.297 163.427 110.961 158.87 110.961 154.867C110.961 150.894 113.297 149.016 116.156 150.648C119.014 152.311 121.35 156.899 121.35 160.872Z" fill="#78AEFF"/>
<defs>
<linearGradient id="paint0_linear_0_2497" x1="197.264" y1="69.0557" x2="118.646" y2="126.299" gradientUnits="userSpaceOnUse">
<stop stop-color="white"/>
<stop offset="1" stop-color="white" stop-opacity="0"/>
</linearGradient>
<linearGradient id="paint1_linear_0_2497" x1="157.25" y1="13.9752" x2="78.6329" y2="71.2179" gradientUnits="userSpaceOnUse">
<stop stop-color="white"/>
<stop offset="1" stop-color="white" stop-opacity="0"/>
</linearGradient>
<linearGradient id="paint2_linear_0_2497" x1="209.687" y1="58.9517" x2="131.069" y2="116.194" gradientUnits="userSpaceOnUse">
<stop stop-color="white"/>
<stop offset="1" stop-color="white" stop-opacity="0"/>
</linearGradient>
<linearGradient id="paint3_linear_0_2497" x1="169.673" y1="3.87083" x2="91.056" y2="61.1134" gradientUnits="userSpaceOnUse">
<stop stop-color="white"/>
<stop offset="1" stop-color="white" stop-opacity="0"/>
</linearGradient>
<linearGradient id="paint4_linear_0_2497" x1="172.09" y1="160.279" x2="159.735" y2="181.645" gradientUnits="userSpaceOnUse">
<stop stop-color="white"/>
<stop offset="1" stop-color="white" stop-opacity="0"/>
</linearGradient>
<linearGradient id="paint5_linear_0_2497" x1="61.1293" y1="127.333" x2="48.7743" y2="148.699" gradientUnits="userSpaceOnUse">
<stop stop-color="white"/>
<stop offset="1" stop-color="white" stop-opacity="0"/>
</linearGradient>
<linearGradient id="paint6_linear_0_2497" x1="161.93" y1="172.851" x2="175.36" y2="281.579" gradientUnits="userSpaceOnUse">
<stop stop-color="white"/>
<stop offset="1" stop-color="white" stop-opacity="0"/>
</linearGradient>
<linearGradient id="paint7_linear_0_2497" x1="80.9249" y1="164.971" x2="27.406" y2="206.797" gradientUnits="userSpaceOnUse">
<stop stop-color="white"/>
<stop offset="1" stop-color="white" stop-opacity="0"/>
</linearGradient>
<linearGradient id="paint8_linear_0_2497" x1="49.5035" y1="232.266" x2="33.3875" y2="244.962" gradientUnits="userSpaceOnUse">
<stop stop-color="white"/>
<stop offset="1" stop-color="white" stop-opacity="0"/>
</linearGradient>
<linearGradient id="paint9_linear_0_2497" x1="182.72" y1="116.919" x2="167.116" y2="125.601" gradientUnits="userSpaceOnUse">
<stop stop-color="white"/>
<stop offset="1" stop-color="white" stop-opacity="0"/>
</linearGradient>
</defs>
</svg>
