<svg width="360" height="337" viewBox="0 0 360 337" fill="none" xmlns="http://www.w3.org/2000/svg">
<path opacity="0.07" d="M263.645 162.932C271.349 156.362 276.089 144.134 276.089 127.635C276.089 93.7517 256.12 54.8009 231.528 40.9531C206.907 27.0758 187.292 43.3396 187.529 77.4879C187.648 93.7223 192.329 111.135 199.885 126.279C205.721 137.947 209.544 150.97 210.818 163.079C211.321 168.265 214.432 173.627 218.017 175.69L245.513 191.453C249.127 193.545 252.209 191.659 252.772 187.092C254.016 176.456 257.779 167.97 263.645 162.932Z" fill="url(#paint0_linear_603_29283)"/>
<path opacity="0.07" d="M252.238 218.913V211.665C252.238 207.776 249.986 203.385 247.171 201.706L216.298 183.969C213.484 182.349 211.232 184.175 211.232 188.064V195.312C211.232 201.146 214.313 207.628 218.343 210.81L245.186 226.22C249.157 227.722 252.238 224.688 252.238 218.913Z" fill="url(#paint1_linear_603_29283)"/>
<path opacity="0.4" d="M248.801 174.659C256.504 168.088 261.245 155.861 261.245 139.361C261.245 105.478 241.275 66.5274 216.684 52.6795C192.033 38.8022 172.448 55.0661 172.685 89.2143C172.804 105.449 177.485 122.862 185.04 138.006C190.877 149.673 194.699 162.696 195.973 174.806C196.477 179.991 199.588 185.354 203.173 187.416L230.668 203.179C234.283 205.271 237.364 203.386 237.927 198.819C239.201 188.182 242.964 179.667 248.801 174.659Z" fill="url(#paint2_linear_603_29283)"/>
<path opacity="0.4" d="M237.424 230.639V223.391C237.424 219.502 235.172 215.112 232.357 213.433L201.484 195.696C198.67 194.075 196.418 195.902 196.418 199.791V207.039C196.418 212.873 199.499 219.355 203.529 222.537L230.372 237.946C234.343 239.449 237.424 236.414 237.424 230.639Z" fill="url(#paint3_linear_603_29283)"/>
<path opacity="0.3" d="M172.567 233.173L84.3921 182.555L84.4217 228.253L164.804 274.393L172.596 285.854L172.567 233.173Z" fill="url(#paint4_linear_603_29283)"/>
<path d="M75 200.38V187.976L108.303 207.068V219.473L75 200.38Z" fill="#AFA5F9"/>
<path opacity="0.15" d="M149.901 231.288L130.583 220.209V224.216L149.901 235.295V231.288Z" fill="white"/>
<path opacity="0.15" d="M149.901 239.331L112.658 217.97V221.977L149.901 243.338V239.331Z" fill="white"/>
<path opacity="0.15" d="M149.901 247.345L104.777 221.447V225.454L149.901 251.352V247.345Z" fill="white"/>
<path d="M154.671 238.211C154.671 241.983 156.923 246.314 159.679 247.905C162.434 249.496 164.686 247.728 164.686 243.957C164.686 240.186 162.434 235.854 159.679 234.263C156.894 232.672 154.671 234.44 154.671 238.211Z" fill="#AFA5F9"/>
<path opacity="0.3" d="M179.441 205.684L267.586 256.302L267.616 302L187.233 255.86L179.471 258.394L179.441 205.684Z" fill="url(#paint5_linear_603_29283)"/>
<path d="M241.957 264.346V251.941L275.23 271.034V283.438L241.957 264.346Z" fill="#89D0F0"/>
<path opacity="0.15" d="M202.106 229.844L221.424 240.922V244.929L202.106 233.851V229.844Z" fill="white"/>
<path opacity="0.15" d="M202.106 237.858L236.979 257.864V261.871L202.106 241.894V237.858Z" fill="white"/>
<path opacity="0.15" d="M202.106 245.901L247.231 271.8V275.807L202.106 249.908V245.901Z" fill="white"/>
<path d="M197.336 231.287C197.336 235.059 195.084 236.827 192.329 235.236C189.574 233.645 187.322 229.313 187.322 225.542C187.322 221.771 189.574 220.003 192.329 221.594C195.114 223.185 197.336 227.516 197.336 231.287Z" fill="#89D0F0"/>
<path opacity="0.3" d="M122.939 110.605L172.596 139.096V230.58L122.939 202.089V110.605Z" fill="url(#paint6_linear_603_29283)"/>
<path opacity="0.15" d="M127.828 164.906L167.708 187.799V191.806L127.828 168.913V164.906Z" fill="white"/>
<path opacity="0.15" d="M130.613 174.334L164.893 194.016V198.023L130.613 178.342V174.334Z" fill="white"/>
<path d="M145.101 190.687L110.554 170.858V181.082L145.101 200.911V190.687Z" fill="#68A4FF"/>
<path d="M153.427 146.58C153.427 150.999 150.849 153.091 147.679 151.265C144.509 149.408 141.931 144.341 141.931 139.892C141.931 135.472 144.509 133.38 147.679 135.207C150.849 137.063 153.427 142.16 153.427 146.58Z" fill="#68A4FF"/>
<path d="M147.649 154.83C142.524 151.854 138.287 154.653 137.546 161.046C137.427 162.166 138.257 163.639 139.294 164.229L156.005 173.952C157.042 174.541 157.871 174.069 157.753 172.802C157.042 165.495 152.775 157.806 147.649 154.83Z" fill="#68A4FF"/>
<defs>
<linearGradient id="paint0_linear_603_29283" x1="266.569" y1="79.1135" x2="176.351" y2="161.717" gradientUnits="userSpaceOnUse">
<stop stop-color="white"/>
<stop offset="1" stop-color="white" stop-opacity="0"/>
</linearGradient>
<linearGradient id="paint1_linear_603_29283" x1="313.493" y1="130.349" x2="223.276" y2="212.953" gradientUnits="userSpaceOnUse">
<stop stop-color="white"/>
<stop offset="1" stop-color="white" stop-opacity="0"/>
</linearGradient>
<linearGradient id="paint2_linear_603_29283" x1="251.748" y1="90.8342" x2="161.531" y2="173.437" gradientUnits="userSpaceOnUse">
<stop stop-color="white"/>
<stop offset="1" stop-color="white" stop-opacity="0"/>
</linearGradient>
<linearGradient id="paint3_linear_603_29283" x1="298.674" y1="142.07" x2="208.457" y2="224.673" gradientUnits="userSpaceOnUse">
<stop stop-color="white"/>
<stop offset="1" stop-color="white" stop-opacity="0"/>
</linearGradient>
<linearGradient id="paint4_linear_603_29283" x1="153.34" y1="214.869" x2="108.01" y2="250.561" gradientUnits="userSpaceOnUse">
<stop stop-color="white"/>
<stop offset="1" stop-color="white" stop-opacity="0"/>
</linearGradient>
<linearGradient id="paint5_linear_603_29283" x1="217.303" y1="207.172" x2="228.576" y2="299.123" gradientUnits="userSpaceOnUse">
<stop stop-color="white"/>
<stop offset="1" stop-color="white" stop-opacity="0"/>
</linearGradient>
<linearGradient id="paint6_linear_603_29283" x1="177.906" y1="118.668" x2="134.197" y2="194.818" gradientUnits="userSpaceOnUse">
<stop stop-color="white"/>
<stop offset="1" stop-color="white" stop-opacity="0"/>
</linearGradient>
</defs>
</svg>
