<svg width="235" height="291" viewBox="0 0 235 291" fill="none" xmlns="http://www.w3.org/2000/svg">
<path d="M126.292 143.752C131.177 149.888 136.603 156.623 140.409 161.332C144.642 148.547 138.989 130.681 132.683 117.325C131.177 125.63 129.075 134.42 126.292 143.752Z" fill="#AFA5F9"/>
<path d="M96.5226 96.4341C90.2449 102.484 84.6206 113.786 88.853 131.452C92.6594 131.138 98.0565 130.71 102.942 130.253C100.158 117.696 98.0565 106.48 96.5226 96.4341Z" fill="#AFA5F9"/>
<path opacity="0.2" d="M110.043 159.363C74.934 23.9159 103.823 12.4146 114.73 7.79126C125.638 25.086 154.498 70.0639 119.36 164.757L110.043 159.363Z" fill="url(#paint0_linear_0_437)"/>
<path opacity="0.1" d="M120.383 151.572C85.2738 16.1532 114.134 4.62336 125.07 0C135.978 17.2948 164.838 62.2727 129.7 156.966L120.383 151.572Z" fill="url(#paint1_linear_0_437)"/>
<path opacity="0.15" d="M119.36 164.757C154.498 70.0639 125.638 25.086 114.73 7.79126V162.074L119.36 164.757Z" fill="url(#paint2_linear_0_437)"/>
<path opacity="0.1" d="M125.184 55.4802C125.184 63.7281 120.355 67.6094 114.39 64.1562C108.425 60.7029 103.596 51.1994 103.596 42.9515C103.596 34.7037 108.425 30.8223 114.39 34.2756C120.355 37.7288 125.184 47.2324 125.184 55.4802Z" fill="white"/>
<path opacity="0.1" d="M123.053 195.408C120.582 191.356 119.389 186.219 118.338 181.709C117.116 176.515 116.094 172.092 113.537 170.979C110.612 169.694 109.305 172.948 107.459 177.457C106.379 180.111 105.101 183.251 103.226 186.133C101.209 183.993 99.0789 182.223 96.8348 180.939C87.4326 175.488 79.5926 180.197 77.7462 191.441C76.468 190.471 75.1897 189.586 73.8831 188.816C58.7996 180.083 46.5852 189.986 46.5852 210.991C46.5852 231.967 58.7996 256.054 73.8547 264.787C88.4836 273.263 100.442 264.159 101.124 244.439C103.879 249.576 107.544 253.885 111.606 256.225C112.657 256.825 113.679 257.281 114.645 257.567C120.497 270.495 129.217 281.625 138.96 287.276C156.572 297.493 170.86 285.963 170.888 261.534C170.888 237.104 156.6 208.993 138.989 198.776C133.166 195.408 127.74 194.381 123.053 195.408Z" fill="url(#paint3_linear_0_437)"/>
<path opacity="0.3" d="M151.431 101.971L228.325 146.578L228.353 186.846L158.248 146.178L151.459 148.404L151.431 101.971Z" fill="url(#paint4_linear_0_437)"/>
<path d="M205.969 153.655V142.725L235 159.563V170.494L205.969 153.655Z" fill="#867DFD"/>
<path opacity="0.1" d="M171.201 123.232L188.046 132.993V136.532L171.201 126.771V123.232Z" fill="white"/>
<path opacity="0.1" d="M171.229 130.31L201.623 147.948V151.486L171.229 133.849V130.31Z" fill="white"/>
<path opacity="0.15" d="M171.229 137.388L210.571 160.219V163.758L171.229 140.927V137.388Z" fill="white"/>
<path d="M167.054 124.517C167.054 127.827 165.094 129.397 162.679 127.998C160.265 126.6 158.305 122.776 158.305 119.465C158.305 116.155 160.265 114.585 162.679 115.983C165.122 117.382 167.054 121.206 167.054 124.517Z" fill="#78AEFF"/>
<path opacity="0.3" d="M85.1031 45.092L8.20898 0.513672L8.23739 40.7826L78.3426 81.4224L85.1315 91.5253L85.1031 45.092Z" fill="url(#paint5_linear_0_437)"/>
<path d="M0 16.2103V5.27979L29.0306 22.1179V33.0485L0 16.2103Z" fill="#867DFD"/>
<path opacity="0.15" d="M65.3331 43.4367L48.4885 33.6763V37.2151L65.3331 46.9756V43.4367Z" fill="white"/>
<path opacity="0.15" d="M65.3332 50.5144L32.8655 31.6785V35.2173L65.3332 54.0533V50.5144Z" fill="white"/>
<path opacity="0.15" d="M65.3331 57.5921L25.9912 34.7607V38.2996L65.3331 61.131V57.5921Z" fill="white"/>
<path d="M69.4802 49.5157C69.4802 52.8263 71.4402 56.6505 73.8547 58.0489C76.2692 59.4474 78.2292 57.8777 78.2292 54.5672C78.2292 51.2566 76.2692 47.4323 73.8547 46.0339C71.4402 44.664 69.4802 46.2052 69.4802 49.5157Z" fill="#78AEFF"/>
<path opacity="0.2" d="M74.8773 88.0722L28.9453 61.4451V85.4751L74.8773 112.102V88.0722Z" fill="url(#paint6_linear_0_437)"/>
<path opacity="0.15" d="M40.7053 74.0308L56.4421 83.1633V86.0458L40.7053 76.9132V74.0308Z" fill="white"/>
<path opacity="0.15" d="M40.7053 79.8242L70.1336 96.8907V99.8017L40.7053 82.7352V79.8242Z" fill="white"/>
<path d="M38.2906 74.8869C38.2906 76.8561 37.126 77.7979 35.6773 76.9703C34.2286 76.1427 33.064 73.8595 33.064 71.8618C33.064 69.8925 34.2286 68.9508 35.6773 69.7784C37.0976 70.6346 38.2906 72.9177 38.2906 74.8869Z" fill="#78AEFF"/>
<path opacity="0.2" d="M211.281 106.223L165.349 79.5959V103.626L211.281 130.282V106.223Z" fill="url(#paint7_linear_0_437)"/>
<path opacity="0.15" d="M177.109 92.2104L192.846 101.343V104.225L177.109 95.0929V92.2104Z" fill="white"/>
<path opacity="0.15" d="M177.138 98.0039L206.566 115.07V117.981L177.138 100.915V98.0039Z" fill="white"/>
<path d="M174.695 93.0666C174.695 95.0358 173.53 95.9776 172.081 95.15C170.633 94.3223 169.468 92.0392 169.468 90.0414C169.468 88.0722 170.633 87.1304 172.081 87.9581C173.53 88.8143 174.695 91.0974 174.695 93.0666Z" fill="#78AEFF"/>
<defs>
<linearGradient id="paint0_linear_0_437" x1="155.661" y1="12.5935" x2="66.739" y2="165.931" gradientUnits="userSpaceOnUse">
<stop stop-color="white"/>
<stop offset="1" stop-color="white" stop-opacity="0"/>
</linearGradient>
<linearGradient id="paint1_linear_0_437" x1="165.998" y1="4.80438" x2="77.0762" y2="158.142" gradientUnits="userSpaceOnUse">
<stop stop-color="white"/>
<stop offset="1" stop-color="white" stop-opacity="0"/>
</linearGradient>
<linearGradient id="paint2_linear_0_437" x1="139.195" y1="46.1086" x2="70.5415" y2="169.405" gradientUnits="userSpaceOnUse">
<stop stop-color="white" stop-opacity="0"/>
<stop offset="1" stop-color="white"/>
</linearGradient>
<linearGradient id="paint3_linear_0_437" x1="132.783" y1="195.186" x2="94.3753" y2="261.415" gradientUnits="userSpaceOnUse">
<stop stop-color="white"/>
<stop offset="1" stop-color="white" stop-opacity="0"/>
</linearGradient>
<linearGradient id="paint4_linear_0_437" x1="184.469" y1="103.275" x2="194.504" y2="184.276" gradientUnits="userSpaceOnUse">
<stop stop-color="white"/>
<stop offset="1" stop-color="white" stop-opacity="0"/>
</linearGradient>
<linearGradient id="paint5_linear_0_437" x1="68.3342" y1="28.9674" x2="28.4868" y2="60.0207" gradientUnits="userSpaceOnUse">
<stop stop-color="white"/>
<stop offset="1" stop-color="white" stop-opacity="0"/>
</linearGradient>
<linearGradient id="paint6_linear_0_437" x1="57.0866" y1="77.7486" x2="46.6552" y2="95.7364" gradientUnits="userSpaceOnUse">
<stop stop-color="white"/>
<stop offset="1" stop-color="white" stop-opacity="0"/>
</linearGradient>
<linearGradient id="paint7_linear_0_437" x1="193.508" y1="95.9215" x2="183.077" y2="113.909" gradientUnits="userSpaceOnUse">
<stop stop-color="white"/>
<stop offset="1" stop-color="white" stop-opacity="0"/>
</linearGradient>
</defs>
</svg>
