<svg width="360" height="337" viewBox="0 0 360 337" fill="none" xmlns="http://www.w3.org/2000/svg">
<path opacity="0.3" d="M196.265 140.189L281.184 189.101V233.232L203.769 188.617L196.293 191.064L196.265 140.189Z" fill="url(#paint0_linear_603_29266)"/>
<path d="M213.528 164.915C213.528 168.557 211.359 170.265 208.706 168.728C206.052 167.192 203.883 163.009 203.883 159.367C203.883 155.725 206.052 154.018 208.706 155.554C211.359 157.062 213.528 161.273 213.528 164.915Z" fill="#AFA5F9"/>
<path opacity="0.15" d="M218.094 163.493L236.698 174.22V178.089L218.094 167.362V163.493Z" fill="white"/>
<path opacity="0.15" d="M218.094 171.26L273.651 203.271V207.14L218.094 175.13V171.26Z" fill="white"/>
<path opacity="0.15" d="M218.094 179L261.552 204.039V207.909L218.094 182.869V179Z" fill="white"/>
<path opacity="0.3" d="M134.573 81.3191L182.397 108.834V197.182L134.573 169.667V81.3191Z" fill="url(#paint1_linear_603_29266)"/>
<path opacity="0.15" d="M139.281 133.759L177.688 155.867V159.737L139.281 137.628V133.759Z" fill="white"/>
<path opacity="0.15" d="M141.963 142.835L174.978 161.842V165.712L141.963 146.705V142.835Z" fill="white"/>
<path d="M155.917 158.656L122.646 139.506V149.38L155.917 168.529V158.656Z" fill="#68A4FF"/>
<path d="M163.935 116.032C163.935 120.3 161.452 122.321 158.399 120.556C155.346 118.792 152.863 113.87 152.863 109.573C152.863 105.305 155.346 103.285 158.399 105.049C161.452 106.87 163.935 111.764 163.935 116.032Z" fill="#68A4FF"/>
<path d="M158.399 123.999C153.462 121.126 149.382 123.829 148.669 130.003C148.554 131.084 149.353 132.507 150.352 133.076L166.446 142.466C167.444 143.035 168.243 142.579 168.129 141.356C167.416 134.328 163.335 126.873 158.399 123.999Z" fill="#68A4FF"/>
<path opacity="0.3" d="M167.759 187.137L215.583 214.652V303L167.759 275.485V187.137Z" fill="url(#paint2_linear_603_29266)"/>
<path opacity="0.15" d="M172.438 239.577L210.846 261.686V265.555L172.438 243.447V239.577Z" fill="white"/>
<path opacity="0.15" d="M175.121 248.654L208.135 267.661V271.531L175.121 252.524V248.654Z" fill="white"/>
<path d="M227.425 286.525L194.153 267.376V277.25L227.425 296.399V286.525Z" fill="#89D0F0"/>
<path d="M197.092 221.851C197.092 226.119 194.61 228.139 191.557 226.375C188.504 224.582 186.021 219.688 186.021 215.392C186.021 211.124 188.504 209.104 191.557 210.868C194.61 212.66 197.092 217.583 197.092 221.851Z" fill="#89D0F0"/>
<path d="M191.557 229.818C186.62 226.944 182.54 229.647 181.826 235.821C181.712 236.903 182.511 238.325 183.51 238.894L199.603 248.284C200.602 248.853 201.401 248.398 201.287 247.174C200.574 240.146 196.493 232.691 191.557 229.818Z" fill="#89D0F0"/>
<path opacity="0.3" d="M153.919 179.427L69 130.515V174.646L146.443 219.233L153.948 230.301L153.919 179.427Z" fill="url(#paint3_linear_603_29266)"/>
<path d="M136.656 184.264C136.656 187.906 138.824 192.088 141.478 193.625C144.132 195.161 146.3 193.454 146.3 189.812C146.3 186.17 144.132 181.987 141.478 180.451C138.824 178.914 136.656 180.622 136.656 184.264Z" fill="#AFA5F9"/>
<path opacity="0.15" d="M132.09 177.577L113.485 166.879V170.748L132.09 181.475V177.577Z" fill="white"/>
<path opacity="0.15" d="M132.09 185.345L76.5332 153.335V157.205L132.09 189.215V185.345Z" fill="white"/>
<path opacity="0.15" d="M132.09 193.113L88.6318 168.074V171.943L132.09 196.982V193.113Z" fill="white"/>
<path opacity="0.4" d="M279.586 70.5067C231.42 42.7646 192.042 75.6283 192.042 144.6L179.743 137.515C179.772 59.609 224.314 21.709 279.586 53.52V70.5067Z" fill="url(#paint4_linear_603_29266)"/>
<path opacity="0.4" d="M239.409 171.915C239.409 141.299 257.386 126.816 279.558 139.563V122.577C250.595 105.903 227.111 124.824 227.111 164.83L239.409 171.915Z" fill="url(#paint5_linear_603_29266)"/>
<path opacity="0.4" d="M215.44 157.802C215.44 108.919 244.146 85.8147 279.5 106.187V89.2006C237.355 64.9298 203.142 92.4728 203.142 150.717L215.44 157.802Z" fill="url(#paint6_linear_603_29266)"/>
<path opacity="0.4" d="M267.887 188.276C274.336 192.003 279.558 187.764 279.558 178.858C279.558 169.952 274.336 159.708 267.887 155.981C261.438 152.254 256.216 156.493 256.216 165.399C256.216 174.333 261.438 184.548 267.887 188.276Z" fill="url(#paint7_linear_603_29266)"/>
<path opacity="0.07" d="M291 62.2553C242.805 34.5131 203.456 67.3769 203.456 136.348L191.157 129.263C191.186 51.3576 235.728 13.4576 291 45.2685V62.2553Z" fill="url(#paint8_linear_603_29266)"/>
<path opacity="0.07" d="M250.823 163.663C250.823 133.048 268.8 118.565 290.971 131.312V114.325C262.008 97.6514 238.524 116.573 238.524 156.579L250.823 163.663Z" fill="url(#paint9_linear_603_29266)"/>
<path opacity="0.07" d="M226.854 149.55C226.854 100.667 255.56 77.5632 290.915 97.9359V80.9492C248.769 56.6784 214.556 84.2213 214.556 142.466L226.854 149.55Z" fill="url(#paint10_linear_603_29266)"/>
<path opacity="0.07" d="M279.301 180.024C285.749 183.752 290.971 179.512 290.971 170.606C290.971 161.7 285.749 151.457 279.301 147.729C272.852 144.002 267.63 148.242 267.63 157.148C267.63 166.082 272.852 176.297 279.301 180.024Z" fill="url(#paint11_linear_603_29266)"/>
<path opacity="0.2" d="M241.92 224.212C243.632 225.18 245.002 227.57 245.002 229.533V238.211L250.766 241.512C252.478 242.479 253.848 244.87 253.848 246.861C253.848 248.825 252.478 249.621 250.766 248.654L245.002 245.353V254.032C245.002 255.995 243.632 256.792 241.92 255.824C240.208 254.857 238.838 252.467 238.838 250.475V241.797L233.074 238.496C231.362 237.529 229.993 235.138 229.993 233.175C229.993 231.212 231.362 230.415 233.074 231.383L238.838 234.683V226.005C238.838 224.042 240.208 223.245 241.92 224.212Z" fill="url(#paint12_linear_603_29266)"/>
<path opacity="0.2" d="M105.953 100.269L113.885 115.805C114.97 117.939 114.798 120.073 113.486 120.585C112.173 121.097 110.233 119.76 109.149 117.626L109.063 117.426V134.669C109.063 136.633 107.693 137.429 105.981 136.462C104.269 135.466 102.899 133.104 102.899 131.141V113.898L102.814 113.984C101.729 114.866 99.7606 113.955 98.4765 111.935C97.1639 109.915 96.9927 107.582 98.0771 106.7L105.953 100.269Z" fill="url(#paint13_linear_603_29266)"/>
<defs>
<linearGradient id="paint0_linear_603_29266" x1="232.769" y1="141.626" x2="243.63" y2="230.415" gradientUnits="userSpaceOnUse">
<stop stop-color="white"/>
<stop offset="1" stop-color="white" stop-opacity="0"/>
</linearGradient>
<linearGradient id="paint1_linear_603_29266" x1="187.519" y1="89.0932" x2="145.249" y2="162.534" gradientUnits="userSpaceOnUse">
<stop stop-color="white"/>
<stop offset="1" stop-color="white" stop-opacity="0"/>
</linearGradient>
<linearGradient id="paint2_linear_603_29266" x1="220.678" y1="194.905" x2="178.409" y2="268.346" gradientUnits="userSpaceOnUse">
<stop stop-color="white"/>
<stop offset="1" stop-color="white" stop-opacity="0"/>
</linearGradient>
<linearGradient id="paint3_linear_603_29266" x1="135.393" y1="161.728" x2="91.6415" y2="196.065" gradientUnits="userSpaceOnUse">
<stop stop-color="white"/>
<stop offset="1" stop-color="white" stop-opacity="0"/>
</linearGradient>
<linearGradient id="paint4_linear_603_29266" x1="262.619" y1="40.518" x2="191.9" y2="123.271" gradientUnits="userSpaceOnUse">
<stop stop-color="white"/>
<stop offset="1" stop-color="white" stop-opacity="0"/>
</linearGradient>
<linearGradient id="paint5_linear_603_29266" x1="306.323" y1="77.8997" x2="235.605" y2="160.653" gradientUnits="userSpaceOnUse">
<stop stop-color="white"/>
<stop offset="1" stop-color="white" stop-opacity="0"/>
</linearGradient>
<linearGradient id="paint6_linear_603_29266" x1="284.924" y1="59.3324" x2="214.206" y2="142.086" gradientUnits="userSpaceOnUse">
<stop stop-color="white"/>
<stop offset="1" stop-color="white" stop-opacity="0"/>
</linearGradient>
<linearGradient id="paint7_linear_603_29266" x1="330.883" y1="98.8454" x2="260.164" y2="181.599" gradientUnits="userSpaceOnUse">
<stop stop-color="white"/>
<stop offset="1" stop-color="white" stop-opacity="0"/>
</linearGradient>
<linearGradient id="paint8_linear_603_29266" x1="274.032" y1="32.2665" x2="203.313" y2="115.02" gradientUnits="userSpaceOnUse">
<stop stop-color="white"/>
<stop offset="1" stop-color="white" stop-opacity="0"/>
</linearGradient>
<linearGradient id="paint9_linear_603_29266" x1="317.736" y1="69.6485" x2="247.018" y2="152.402" gradientUnits="userSpaceOnUse">
<stop stop-color="white"/>
<stop offset="1" stop-color="white" stop-opacity="0"/>
</linearGradient>
<linearGradient id="paint10_linear_603_29266" x1="296.338" y1="51.081" x2="225.62" y2="133.834" gradientUnits="userSpaceOnUse">
<stop stop-color="white"/>
<stop offset="1" stop-color="white" stop-opacity="0"/>
</linearGradient>
<linearGradient id="paint11_linear_603_29266" x1="342.297" y1="90.5935" x2="271.578" y2="173.347" gradientUnits="userSpaceOnUse">
<stop stop-color="white"/>
<stop offset="1" stop-color="white" stop-opacity="0"/>
</linearGradient>
<linearGradient id="paint12_linear_603_29266" x1="247.886" y1="235.315" x2="232.978" y2="247.113" gradientUnits="userSpaceOnUse">
<stop stop-color="white"/>
<stop offset="1" stop-color="white" stop-opacity="0"/>
</linearGradient>
<linearGradient id="paint13_linear_603_29266" x1="111.606" y1="115.931" x2="97.1531" y2="124.011" gradientUnits="userSpaceOnUse">
<stop stop-color="white"/>
<stop offset="1" stop-color="white" stop-opacity="0"/>
</linearGradient>
</defs>
</svg>
