<svg width="209" height="266" viewBox="0 0 209 266" fill="none" xmlns="http://www.w3.org/2000/svg">
<path opacity="0.07" d="M188.645 126.932C196.349 120.362 201.089 108.134 201.089 91.6348C201.089 57.7517 181.12 18.8009 156.528 4.95308C131.906 -8.92424 112.292 7.33963 112.529 41.4879C112.648 57.7223 117.329 75.1352 124.884 90.2795C130.721 101.947 134.543 114.97 135.817 127.079C136.321 132.265 139.432 137.627 143.017 139.69L170.513 155.453C174.127 157.545 177.209 155.659 177.772 151.092C179.016 140.456 182.779 131.97 188.645 126.932Z" fill="url(#paint0_linear_0_1539)"/>
<path opacity="0.07" d="M177.238 182.913V175.665C177.238 171.776 174.986 167.385 172.172 165.706L141.299 147.969C138.484 146.349 136.232 148.175 136.232 152.064V159.312C136.232 165.146 139.314 171.628 143.343 174.81L170.187 190.22C174.157 191.722 177.238 188.688 177.238 182.913Z" fill="url(#paint1_linear_0_1539)"/>
<path opacity="0.4" d="M173.801 138.659C181.505 132.088 186.245 119.861 186.245 103.361C186.245 69.4782 166.276 30.5274 141.684 16.6795C117.033 2.8022 97.4485 19.0661 97.6855 53.2143C97.804 69.4487 102.485 86.8617 110.041 102.006C115.877 113.673 119.699 126.696 120.974 138.806C121.477 143.991 124.588 149.354 128.173 151.416L155.669 167.179C159.283 169.271 162.365 167.386 162.928 162.819C164.202 152.182 167.964 143.667 173.801 138.659Z" fill="url(#paint2_linear_0_1539)"/>
<path opacity="0.4" d="M162.424 194.639V187.391C162.424 183.502 160.172 179.112 157.357 177.433L126.484 159.696C123.67 158.075 121.418 159.902 121.418 163.791V171.039C121.418 176.873 124.499 183.355 128.529 186.537L155.372 201.946C159.342 203.449 162.424 200.414 162.424 194.639Z" fill="url(#paint3_linear_0_1539)"/>
<path opacity="0.3" d="M97.567 197.173L9.39233 146.555L9.42196 192.253L89.8043 238.393L97.5966 249.854L97.567 197.173Z" fill="url(#paint4_linear_0_1539)"/>
<path d="M0 164.38V151.976L33.3025 171.068V183.473L0 164.38Z" fill="#78AEFF"/>
<path opacity="0.15" d="M74.9011 195.288L55.5833 184.209V188.216L74.9011 199.295V195.288Z" fill="white"/>
<path opacity="0.15" d="M74.9011 203.331L37.658 181.97V185.977L74.9011 207.338V203.331Z" fill="white"/>
<path opacity="0.15" d="M74.9009 211.345L29.7766 185.447V189.454L74.9009 215.352V211.345Z" fill="white"/>
<path d="M79.6711 202.212C79.6711 205.983 81.9229 210.314 84.6784 211.905C87.4338 213.496 89.6856 211.728 89.6856 207.957C89.6856 204.186 87.4338 199.854 84.6784 198.263C81.8933 196.672 79.6711 198.44 79.6711 202.212Z" fill="#78AEFF"/>
<path opacity="0.3" d="M104.441 169.684L192.586 220.302L192.615 266L112.233 219.86L104.47 222.394L104.441 169.684Z" fill="url(#paint5_linear_0_1539)"/>
<path d="M166.957 228.346V215.941L200.23 235.034V247.438L166.957 228.346Z" fill="#AFA5F9"/>
<path opacity="0.15" d="M127.107 193.844L146.424 204.922V208.929L127.107 197.851V193.844Z" fill="white"/>
<path opacity="0.15" d="M127.107 201.858L161.979 221.864V225.871L127.107 205.894V201.858Z" fill="white"/>
<path opacity="0.15" d="M127.107 209.901L172.231 235.8V239.807L127.107 213.908V209.901Z" fill="white"/>
<path d="M122.336 195.288C122.336 199.059 120.085 200.827 117.329 199.236C114.574 197.645 112.322 193.313 112.322 189.542C112.322 185.771 114.574 184.003 117.329 185.594C120.114 187.185 122.336 191.516 122.336 195.288Z" fill="#AFA5F9"/>
<path opacity="0.3" d="M47.939 74.6049L97.5964 103.096V194.58L47.939 166.089V74.6049Z" fill="url(#paint6_linear_0_1539)"/>
<path opacity="0.15" d="M52.8276 128.906L92.7077 151.799V155.806L52.8276 132.913V128.906Z" fill="white"/>
<path opacity="0.15" d="M55.6128 138.334L89.8931 158.016V162.023L55.6128 142.342V138.334Z" fill="white"/>
<path d="M70.1011 154.687L35.5542 134.858V145.082L70.1011 164.911V154.687Z" fill="#867DFD"/>
<path d="M78.4268 110.58C78.4268 114.999 75.8491 117.091 72.6789 115.265C69.5086 113.408 66.9309 108.341 66.9309 103.892C66.9309 99.4721 69.5086 97.3802 72.6789 99.2069C75.8491 101.063 78.4268 106.16 78.4268 110.58Z" fill="#867DFD"/>
<path d="M72.6493 118.83C67.5236 115.854 63.2867 118.653 62.546 125.046C62.4275 126.166 63.2571 127.639 64.2941 128.229L81.0046 137.952C82.0416 138.541 82.8712 138.069 82.7527 136.802C82.0416 129.495 77.7751 121.806 72.6493 118.83Z" fill="#867DFD"/>
<defs>
<linearGradient id="paint0_linear_0_1539" x1="191.569" y1="43.1135" x2="101.351" y2="125.717" gradientUnits="userSpaceOnUse">
<stop stop-color="white"/>
<stop offset="1" stop-color="white" stop-opacity="0"/>
</linearGradient>
<linearGradient id="paint1_linear_0_1539" x1="238.494" y1="94.3492" x2="148.276" y2="176.953" gradientUnits="userSpaceOnUse">
<stop stop-color="white"/>
<stop offset="1" stop-color="white" stop-opacity="0"/>
</linearGradient>
<linearGradient id="paint2_linear_0_1539" x1="176.749" y1="54.8342" x2="86.5312" y2="137.437" gradientUnits="userSpaceOnUse">
<stop stop-color="white"/>
<stop offset="1" stop-color="white" stop-opacity="0"/>
</linearGradient>
<linearGradient id="paint3_linear_0_1539" x1="223.674" y1="106.07" x2="133.456" y2="188.673" gradientUnits="userSpaceOnUse">
<stop stop-color="white"/>
<stop offset="1" stop-color="white" stop-opacity="0"/>
</linearGradient>
<linearGradient id="paint4_linear_0_1539" x1="78.3406" y1="178.869" x2="33.0098" y2="214.561" gradientUnits="userSpaceOnUse">
<stop stop-color="white"/>
<stop offset="1" stop-color="white" stop-opacity="0"/>
</linearGradient>
<linearGradient id="paint5_linear_0_1539" x1="142.303" y1="171.172" x2="153.576" y2="263.123" gradientUnits="userSpaceOnUse">
<stop stop-color="white"/>
<stop offset="1" stop-color="white" stop-opacity="0"/>
</linearGradient>
<linearGradient id="paint6_linear_0_1539" x1="102.906" y1="82.668" x2="59.1968" y2="158.818" gradientUnits="userSpaceOnUse">
<stop stop-color="white"/>
<stop offset="1" stop-color="white" stop-opacity="0"/>
</linearGradient>
</defs>
</svg>
